<mxfile host="Electron" agent="Mozilla/5.0 (Windows NT 10.0; Win64; x64) AppleWebKit/537.36 (KHTML, like Gecko) draw.io/27.0.9 Chrome/134.0.6998.205 Electron/35.4.0 Safari/537.36" version="27.0.9">
  <diagram id="C5RBs43oDa-KdzZeNtuy" name="Page-1">
    <mxGraphModel dx="2867" dy="3156" grid="1" gridSize="10" guides="1" tooltips="1" connect="1" arrows="1" fold="1" page="1" pageScale="1" pageWidth="827" pageHeight="1169" math="0" shadow="0">
      <root>
        <mxCell id="WIyWlLk6GJQsqaUBKTNV-0" />
        <mxCell id="WIyWlLk6GJQsqaUBKTNV-1" parent="WIyWlLk6GJQsqaUBKTNV-0" />
        <mxCell id="FOksgfGxdBfBZHIW1R6P-0" value="Cidadão" style="shape=table;startSize=30;container=1;collapsible=1;childLayout=tableLayout;fixedRows=1;rowLines=0;fontStyle=1;align=center;resizeLast=1;html=1;swimlaneLine=1;" parent="WIyWlLk6GJQsqaUBKTNV-1" vertex="1">
          <mxGeometry x="80" y="159.56" width="283" height="390.4399999999999" as="geometry" />
        </mxCell>
        <mxCell id="FOksgfGxdBfBZHIW1R6P-1" value="" style="shape=tableRow;horizontal=0;startSize=0;swimlaneHead=0;swimlaneBody=0;fillColor=none;collapsible=0;dropTarget=0;points=[[0,0.5],[1,0.5]];portConstraint=eastwest;top=0;left=0;right=0;bottom=1;swimlaneLine=1;" parent="FOksgfGxdBfBZHIW1R6P-0" vertex="1">
          <mxGeometry y="30" width="283" height="29" as="geometry" />
        </mxCell>
        <mxCell id="FOksgfGxdBfBZHIW1R6P-2" value="PK" style="shape=partialRectangle;connectable=0;fillColor=none;top=0;left=0;bottom=0;right=0;fontStyle=1;overflow=hidden;whiteSpace=wrap;html=1;swimlaneLine=1;" parent="FOksgfGxdBfBZHIW1R6P-1" vertex="1">
          <mxGeometry width="30" height="29" as="geometry">
            <mxRectangle width="30" height="29" as="alternateBounds" />
          </mxGeometry>
        </mxCell>
        <mxCell id="FOksgfGxdBfBZHIW1R6P-3" value="cidadão_id: int" style="shape=partialRectangle;connectable=0;fillColor=none;top=0;left=0;bottom=0;right=0;align=left;spacingLeft=6;fontStyle=5;overflow=hidden;whiteSpace=wrap;html=1;swimlaneLine=1;" parent="FOksgfGxdBfBZHIW1R6P-1" vertex="1">
          <mxGeometry x="30" width="253" height="29" as="geometry">
            <mxRectangle width="253" height="29" as="alternateBounds" />
          </mxGeometry>
        </mxCell>
        <mxCell id="FOksgfGxdBfBZHIW1R6P-10" value="" style="shape=tableRow;horizontal=0;startSize=0;swimlaneHead=0;swimlaneBody=0;fillColor=none;collapsible=0;dropTarget=0;points=[[0,0.5],[1,0.5]];portConstraint=eastwest;top=0;left=0;right=0;bottom=0;swimlaneLine=1;" parent="FOksgfGxdBfBZHIW1R6P-0" vertex="1">
          <mxGeometry y="59" width="283" height="30" as="geometry" />
        </mxCell>
        <mxCell id="FOksgfGxdBfBZHIW1R6P-11" value="*" style="shape=partialRectangle;connectable=0;fillColor=none;top=0;left=0;bottom=0;right=0;editable=1;overflow=hidden;whiteSpace=wrap;html=1;swimlaneLine=1;" parent="FOksgfGxdBfBZHIW1R6P-10" vertex="1">
          <mxGeometry width="30" height="30" as="geometry">
            <mxRectangle width="30" height="30" as="alternateBounds" />
          </mxGeometry>
        </mxCell>
        <mxCell id="FOksgfGxdBfBZHIW1R6P-12" value="cidadão_nome: varchar(256)" style="shape=partialRectangle;connectable=0;fillColor=none;top=0;left=0;bottom=0;right=0;align=left;spacingLeft=6;overflow=hidden;whiteSpace=wrap;html=1;fontStyle=0;swimlaneLine=1;" parent="FOksgfGxdBfBZHIW1R6P-10" vertex="1">
          <mxGeometry x="30" width="253" height="30" as="geometry">
            <mxRectangle width="253" height="30" as="alternateBounds" />
          </mxGeometry>
        </mxCell>
        <mxCell id="FOksgfGxdBfBZHIW1R6P-13" style="shape=tableRow;horizontal=0;startSize=0;swimlaneHead=0;swimlaneBody=0;fillColor=none;collapsible=0;dropTarget=0;points=[[0,0.5],[1,0.5]];portConstraint=eastwest;top=0;left=0;right=0;bottom=0;swimlaneLine=1;" parent="FOksgfGxdBfBZHIW1R6P-0" vertex="1">
          <mxGeometry y="89" width="283" height="31" as="geometry" />
        </mxCell>
        <mxCell id="FOksgfGxdBfBZHIW1R6P-14" value="*" style="shape=partialRectangle;connectable=0;fillColor=none;top=0;left=0;bottom=0;right=0;editable=1;overflow=hidden;whiteSpace=wrap;html=1;swimlaneLine=1;" parent="FOksgfGxdBfBZHIW1R6P-13" vertex="1">
          <mxGeometry width="30" height="31" as="geometry">
            <mxRectangle width="30" height="31" as="alternateBounds" />
          </mxGeometry>
        </mxCell>
        <mxCell id="FOksgfGxdBfBZHIW1R6P-15" value="cidadão_sobrenome: varchar(64)" style="shape=partialRectangle;connectable=0;fillColor=none;top=0;left=0;bottom=0;right=0;align=left;spacingLeft=6;overflow=hidden;whiteSpace=wrap;html=1;fontStyle=0;swimlaneLine=1;" parent="FOksgfGxdBfBZHIW1R6P-13" vertex="1">
          <mxGeometry x="30" width="253" height="31" as="geometry">
            <mxRectangle width="253" height="31" as="alternateBounds" />
          </mxGeometry>
        </mxCell>
        <mxCell id="FOksgfGxdBfBZHIW1R6P-16" style="shape=tableRow;horizontal=0;startSize=0;swimlaneHead=0;swimlaneBody=0;fillColor=none;collapsible=0;dropTarget=0;points=[[0,0.5],[1,0.5]];portConstraint=eastwest;top=0;left=0;right=0;bottom=0;swimlaneLine=1;" parent="FOksgfGxdBfBZHIW1R6P-0" vertex="1">
          <mxGeometry y="120" width="283" height="30" as="geometry" />
        </mxCell>
        <mxCell id="FOksgfGxdBfBZHIW1R6P-17" value="*" style="shape=partialRectangle;connectable=0;fillColor=none;top=0;left=0;bottom=0;right=0;editable=1;overflow=hidden;whiteSpace=wrap;html=1;swimlaneLine=1;" parent="FOksgfGxdBfBZHIW1R6P-16" vertex="1">
          <mxGeometry width="30" height="30" as="geometry">
            <mxRectangle width="30" height="30" as="alternateBounds" />
          </mxGeometry>
        </mxCell>
        <mxCell id="FOksgfGxdBfBZHIW1R6P-18" value="cidadão_cpf: varchar(11)" style="shape=partialRectangle;connectable=0;fillColor=none;top=0;left=0;bottom=0;right=0;align=left;spacingLeft=6;overflow=hidden;whiteSpace=wrap;html=1;fontStyle=0;swimlaneLine=1;" parent="FOksgfGxdBfBZHIW1R6P-16" vertex="1">
          <mxGeometry x="30" width="253" height="30" as="geometry">
            <mxRectangle width="253" height="30" as="alternateBounds" />
          </mxGeometry>
        </mxCell>
        <mxCell id="FOksgfGxdBfBZHIW1R6P-19" style="shape=tableRow;horizontal=0;startSize=0;swimlaneHead=0;swimlaneBody=0;fillColor=none;collapsible=0;dropTarget=0;points=[[0,0.5],[1,0.5]];portConstraint=eastwest;top=0;left=0;right=0;bottom=0;swimlaneLine=1;" parent="FOksgfGxdBfBZHIW1R6P-0" vertex="1">
          <mxGeometry y="150" width="283" height="30" as="geometry" />
        </mxCell>
        <mxCell id="FOksgfGxdBfBZHIW1R6P-20" value="" style="shape=partialRectangle;connectable=0;fillColor=none;top=0;left=0;bottom=0;right=0;editable=1;overflow=hidden;whiteSpace=wrap;html=1;swimlaneLine=1;" parent="FOksgfGxdBfBZHIW1R6P-19" vertex="1">
          <mxGeometry width="30" height="30" as="geometry">
            <mxRectangle width="30" height="30" as="alternateBounds" />
          </mxGeometry>
        </mxCell>
        <mxCell id="FOksgfGxdBfBZHIW1R6P-21" value="cidadão_nacionalidade: varchar(64)" style="shape=partialRectangle;connectable=0;fillColor=none;top=0;left=0;bottom=0;right=0;align=left;spacingLeft=6;overflow=hidden;whiteSpace=wrap;html=1;fontStyle=0;swimlaneLine=1;" parent="FOksgfGxdBfBZHIW1R6P-19" vertex="1">
          <mxGeometry x="30" width="253" height="30" as="geometry">
            <mxRectangle width="253" height="30" as="alternateBounds" />
          </mxGeometry>
        </mxCell>
        <mxCell id="FOksgfGxdBfBZHIW1R6P-22" style="shape=tableRow;horizontal=0;startSize=0;swimlaneHead=0;swimlaneBody=0;fillColor=none;collapsible=0;dropTarget=0;points=[[0,0.5],[1,0.5]];portConstraint=eastwest;top=0;left=0;right=0;bottom=0;swimlaneLine=1;" parent="FOksgfGxdBfBZHIW1R6P-0" vertex="1">
          <mxGeometry y="180" width="283" height="30" as="geometry" />
        </mxCell>
        <mxCell id="FOksgfGxdBfBZHIW1R6P-23" value="" style="shape=partialRectangle;connectable=0;fillColor=none;top=0;left=0;bottom=0;right=0;editable=1;overflow=hidden;whiteSpace=wrap;html=1;swimlaneLine=1;" parent="FOksgfGxdBfBZHIW1R6P-22" vertex="1">
          <mxGeometry width="30" height="30" as="geometry">
            <mxRectangle width="30" height="30" as="alternateBounds" />
          </mxGeometry>
        </mxCell>
        <mxCell id="FOksgfGxdBfBZHIW1R6P-24" value="&lt;span style=&quot;background-color: rgb(255, 255, 255);&quot;&gt;cidadão_telefone: varchar(20)&lt;/span&gt;" style="shape=partialRectangle;connectable=0;fillColor=none;top=0;left=0;bottom=0;right=0;align=left;spacingLeft=6;overflow=hidden;whiteSpace=wrap;html=1;fontStyle=0;swimlaneLine=1;" parent="FOksgfGxdBfBZHIW1R6P-22" vertex="1">
          <mxGeometry x="30" width="253" height="30" as="geometry">
            <mxRectangle width="253" height="30" as="alternateBounds" />
          </mxGeometry>
        </mxCell>
        <mxCell id="FOksgfGxdBfBZHIW1R6P-25" style="shape=tableRow;horizontal=0;startSize=0;swimlaneHead=0;swimlaneBody=0;fillColor=none;collapsible=0;dropTarget=0;points=[[0,0.5],[1,0.5]];portConstraint=eastwest;top=0;left=0;right=0;bottom=0;swimlaneLine=1;" parent="FOksgfGxdBfBZHIW1R6P-0" vertex="1">
          <mxGeometry y="210" width="283" height="30" as="geometry" />
        </mxCell>
        <mxCell id="FOksgfGxdBfBZHIW1R6P-26" value="FK" style="shape=partialRectangle;connectable=0;fillColor=none;top=0;left=0;bottom=0;right=0;editable=1;overflow=hidden;whiteSpace=wrap;html=1;swimlaneLine=1;" parent="FOksgfGxdBfBZHIW1R6P-25" vertex="1">
          <mxGeometry width="30" height="30" as="geometry">
            <mxRectangle width="30" height="30" as="alternateBounds" />
          </mxGeometry>
        </mxCell>
        <mxCell id="FOksgfGxdBfBZHIW1R6P-27" value="endereco_id: int" style="shape=partialRectangle;connectable=0;fillColor=none;top=0;left=0;bottom=0;right=0;align=left;spacingLeft=6;overflow=hidden;whiteSpace=wrap;html=1;fontStyle=0;swimlaneLine=1;" parent="FOksgfGxdBfBZHIW1R6P-25" vertex="1">
          <mxGeometry x="30" width="253" height="30" as="geometry">
            <mxRectangle width="253" height="30" as="alternateBounds" />
          </mxGeometry>
        </mxCell>
        <mxCell id="EEHmMVJqZzsaK7D_wYMv-752" style="shape=tableRow;horizontal=0;startSize=0;swimlaneHead=0;swimlaneBody=0;fillColor=none;collapsible=0;dropTarget=0;points=[[0,0.5],[1,0.5]];portConstraint=eastwest;top=0;left=0;right=0;bottom=0;swimlaneLine=1;" vertex="1" parent="FOksgfGxdBfBZHIW1R6P-0">
          <mxGeometry y="240" width="283" height="30" as="geometry" />
        </mxCell>
        <mxCell id="EEHmMVJqZzsaK7D_wYMv-753" value="*" style="shape=partialRectangle;connectable=0;fillColor=none;top=0;left=0;bottom=0;right=0;editable=1;overflow=hidden;whiteSpace=wrap;html=1;swimlaneLine=1;" vertex="1" parent="EEHmMVJqZzsaK7D_wYMv-752">
          <mxGeometry width="30" height="30" as="geometry">
            <mxRectangle width="30" height="30" as="alternateBounds" />
          </mxGeometry>
        </mxCell>
        <mxCell id="EEHmMVJqZzsaK7D_wYMv-754" value="row_update_time: timestamp" style="shape=partialRectangle;connectable=0;fillColor=none;top=0;left=0;bottom=0;right=0;align=left;spacingLeft=6;overflow=hidden;whiteSpace=wrap;html=1;fontStyle=0;swimlaneLine=1;" vertex="1" parent="EEHmMVJqZzsaK7D_wYMv-752">
          <mxGeometry x="30" width="253" height="30" as="geometry">
            <mxRectangle width="253" height="30" as="alternateBounds" />
          </mxGeometry>
        </mxCell>
        <mxCell id="EEHmMVJqZzsaK7D_wYMv-755" style="shape=tableRow;horizontal=0;startSize=0;swimlaneHead=0;swimlaneBody=0;fillColor=none;collapsible=0;dropTarget=0;points=[[0,0.5],[1,0.5]];portConstraint=eastwest;top=0;left=0;right=0;bottom=0;swimlaneLine=1;" vertex="1" parent="FOksgfGxdBfBZHIW1R6P-0">
          <mxGeometry y="270" width="283" height="30" as="geometry" />
        </mxCell>
        <mxCell id="EEHmMVJqZzsaK7D_wYMv-756" value="*" style="shape=partialRectangle;connectable=0;fillColor=none;top=0;left=0;bottom=0;right=0;editable=1;overflow=hidden;whiteSpace=wrap;html=1;swimlaneLine=1;" vertex="1" parent="EEHmMVJqZzsaK7D_wYMv-755">
          <mxGeometry width="30" height="30" as="geometry">
            <mxRectangle width="30" height="30" as="alternateBounds" />
          </mxGeometry>
        </mxCell>
        <mxCell id="EEHmMVJqZzsaK7D_wYMv-757" value="row_creation_time: timestamp" style="shape=partialRectangle;connectable=0;fillColor=none;top=0;left=0;bottom=0;right=0;align=left;spacingLeft=6;overflow=hidden;whiteSpace=wrap;html=1;fontStyle=0;swimlaneLine=1;" vertex="1" parent="EEHmMVJqZzsaK7D_wYMv-755">
          <mxGeometry x="30" width="253" height="30" as="geometry">
            <mxRectangle width="253" height="30" as="alternateBounds" />
          </mxGeometry>
        </mxCell>
        <mxCell id="EEHmMVJqZzsaK7D_wYMv-758" style="shape=tableRow;horizontal=0;startSize=0;swimlaneHead=0;swimlaneBody=0;fillColor=none;collapsible=0;dropTarget=0;points=[[0,0.5],[1,0.5]];portConstraint=eastwest;top=0;left=0;right=0;bottom=0;swimlaneLine=1;" vertex="1" parent="FOksgfGxdBfBZHIW1R6P-0">
          <mxGeometry y="300" width="283" height="30" as="geometry" />
        </mxCell>
        <mxCell id="EEHmMVJqZzsaK7D_wYMv-759" value="*" style="shape=partialRectangle;connectable=0;fillColor=none;top=0;left=0;bottom=0;right=0;editable=1;overflow=hidden;whiteSpace=wrap;html=1;swimlaneLine=1;" vertex="1" parent="EEHmMVJqZzsaK7D_wYMv-758">
          <mxGeometry width="30" height="30" as="geometry">
            <mxRectangle width="30" height="30" as="alternateBounds" />
          </mxGeometry>
        </mxCell>
        <mxCell id="EEHmMVJqZzsaK7D_wYMv-760" value="row_creation_user: varchar(30)" style="shape=partialRectangle;connectable=0;fillColor=none;top=0;left=0;bottom=0;right=0;align=left;spacingLeft=6;overflow=hidden;whiteSpace=wrap;html=1;fontStyle=0;swimlaneLine=1;" vertex="1" parent="EEHmMVJqZzsaK7D_wYMv-758">
          <mxGeometry x="30" width="253" height="30" as="geometry">
            <mxRectangle width="253" height="30" as="alternateBounds" />
          </mxGeometry>
        </mxCell>
        <mxCell id="EEHmMVJqZzsaK7D_wYMv-761" style="shape=tableRow;horizontal=0;startSize=0;swimlaneHead=0;swimlaneBody=0;fillColor=none;collapsible=0;dropTarget=0;points=[[0,0.5],[1,0.5]];portConstraint=eastwest;top=0;left=0;right=0;bottom=0;swimlaneLine=1;" vertex="1" parent="FOksgfGxdBfBZHIW1R6P-0">
          <mxGeometry y="330" width="283" height="30" as="geometry" />
        </mxCell>
        <mxCell id="EEHmMVJqZzsaK7D_wYMv-762" value="*" style="shape=partialRectangle;connectable=0;fillColor=none;top=0;left=0;bottom=0;right=0;editable=1;overflow=hidden;whiteSpace=wrap;html=1;swimlaneLine=1;" vertex="1" parent="EEHmMVJqZzsaK7D_wYMv-761">
          <mxGeometry width="30" height="30" as="geometry">
            <mxRectangle width="30" height="30" as="alternateBounds" />
          </mxGeometry>
        </mxCell>
        <mxCell id="EEHmMVJqZzsaK7D_wYMv-763" value="row_update_user: varchar(30)" style="shape=partialRectangle;connectable=0;fillColor=none;top=0;left=0;bottom=0;right=0;align=left;spacingLeft=6;overflow=hidden;whiteSpace=wrap;html=1;fontStyle=0;swimlaneLine=1;" vertex="1" parent="EEHmMVJqZzsaK7D_wYMv-761">
          <mxGeometry x="30" width="253" height="30" as="geometry">
            <mxRectangle width="253" height="30" as="alternateBounds" />
          </mxGeometry>
        </mxCell>
        <mxCell id="EEHmMVJqZzsaK7D_wYMv-878" style="shape=tableRow;horizontal=0;startSize=0;swimlaneHead=0;swimlaneBody=0;fillColor=none;collapsible=0;dropTarget=0;points=[[0,0.5],[1,0.5]];portConstraint=eastwest;top=0;left=0;right=0;bottom=0;swimlaneLine=1;" vertex="1" parent="FOksgfGxdBfBZHIW1R6P-0">
          <mxGeometry y="360" width="283" height="30" as="geometry" />
        </mxCell>
        <mxCell id="EEHmMVJqZzsaK7D_wYMv-879" value="*" style="shape=partialRectangle;connectable=0;fillColor=none;top=0;left=0;bottom=0;right=0;editable=1;overflow=hidden;whiteSpace=wrap;html=1;swimlaneLine=1;" vertex="1" parent="EEHmMVJqZzsaK7D_wYMv-878">
          <mxGeometry width="30" height="30" as="geometry">
            <mxRectangle width="30" height="30" as="alternateBounds" />
          </mxGeometry>
        </mxCell>
        <mxCell id="EEHmMVJqZzsaK7D_wYMv-880" value="row_is_deleted: bool" style="shape=partialRectangle;connectable=0;fillColor=none;top=0;left=0;bottom=0;right=0;align=left;spacingLeft=6;overflow=hidden;whiteSpace=wrap;html=1;fontStyle=0;swimlaneLine=1;" vertex="1" parent="EEHmMVJqZzsaK7D_wYMv-878">
          <mxGeometry x="30" width="253" height="30" as="geometry">
            <mxRectangle width="253" height="30" as="alternateBounds" />
          </mxGeometry>
        </mxCell>
        <mxCell id="FOksgfGxdBfBZHIW1R6P-34" value="Polo_Atendimento" style="shape=table;startSize=30;container=1;collapsible=1;childLayout=tableLayout;fixedRows=1;rowLines=0;fontStyle=1;align=center;resizeLast=1;html=1;swimlaneLine=1;" parent="WIyWlLk6GJQsqaUBKTNV-1" vertex="1">
          <mxGeometry x="880" y="-330" width="283" height="300.44" as="geometry" />
        </mxCell>
        <mxCell id="FOksgfGxdBfBZHIW1R6P-35" value="" style="shape=tableRow;horizontal=0;startSize=0;swimlaneHead=0;swimlaneBody=0;fillColor=none;collapsible=0;dropTarget=0;points=[[0,0.5],[1,0.5]];portConstraint=eastwest;top=0;left=0;right=0;bottom=1;swimlaneLine=1;" parent="FOksgfGxdBfBZHIW1R6P-34" vertex="1">
          <mxGeometry y="30" width="283" height="29" as="geometry" />
        </mxCell>
        <mxCell id="FOksgfGxdBfBZHIW1R6P-36" value="PK" style="shape=partialRectangle;connectable=0;fillColor=none;top=0;left=0;bottom=0;right=0;fontStyle=1;overflow=hidden;whiteSpace=wrap;html=1;swimlaneLine=1;" parent="FOksgfGxdBfBZHIW1R6P-35" vertex="1">
          <mxGeometry width="30" height="29" as="geometry">
            <mxRectangle width="30" height="29" as="alternateBounds" />
          </mxGeometry>
        </mxCell>
        <mxCell id="FOksgfGxdBfBZHIW1R6P-37" value="polo_atendimento_id" style="shape=partialRectangle;connectable=0;fillColor=none;top=0;left=0;bottom=0;right=0;align=left;spacingLeft=6;fontStyle=5;overflow=hidden;whiteSpace=wrap;html=1;swimlaneLine=1;" parent="FOksgfGxdBfBZHIW1R6P-35" vertex="1">
          <mxGeometry x="30" width="253" height="29" as="geometry">
            <mxRectangle width="253" height="29" as="alternateBounds" />
          </mxGeometry>
        </mxCell>
        <mxCell id="FOksgfGxdBfBZHIW1R6P-38" value="" style="shape=tableRow;horizontal=0;startSize=0;swimlaneHead=0;swimlaneBody=0;fillColor=none;collapsible=0;dropTarget=0;points=[[0,0.5],[1,0.5]];portConstraint=eastwest;top=0;left=0;right=0;bottom=0;swimlaneLine=1;" parent="FOksgfGxdBfBZHIW1R6P-34" vertex="1">
          <mxGeometry y="59" width="283" height="30" as="geometry" />
        </mxCell>
        <mxCell id="FOksgfGxdBfBZHIW1R6P-39" value="*" style="shape=partialRectangle;connectable=0;fillColor=none;top=0;left=0;bottom=0;right=0;editable=1;overflow=hidden;whiteSpace=wrap;html=1;swimlaneLine=1;" parent="FOksgfGxdBfBZHIW1R6P-38" vertex="1">
          <mxGeometry width="30" height="30" as="geometry">
            <mxRectangle width="30" height="30" as="alternateBounds" />
          </mxGeometry>
        </mxCell>
        <mxCell id="FOksgfGxdBfBZHIW1R6P-40" value="polo_atendimento_nome: varchar(256)" style="shape=partialRectangle;connectable=0;fillColor=none;top=0;left=0;bottom=0;right=0;align=left;spacingLeft=6;overflow=hidden;whiteSpace=wrap;html=1;fontStyle=0;swimlaneLine=1;" parent="FOksgfGxdBfBZHIW1R6P-38" vertex="1">
          <mxGeometry x="30" width="253" height="30" as="geometry">
            <mxRectangle width="253" height="30" as="alternateBounds" />
          </mxGeometry>
        </mxCell>
        <mxCell id="FOksgfGxdBfBZHIW1R6P-41" style="shape=tableRow;horizontal=0;startSize=0;swimlaneHead=0;swimlaneBody=0;fillColor=none;collapsible=0;dropTarget=0;points=[[0,0.5],[1,0.5]];portConstraint=eastwest;top=0;left=0;right=0;bottom=0;swimlaneLine=1;" parent="FOksgfGxdBfBZHIW1R6P-34" vertex="1">
          <mxGeometry y="89" width="283" height="30" as="geometry" />
        </mxCell>
        <mxCell id="FOksgfGxdBfBZHIW1R6P-42" value="*" style="shape=partialRectangle;connectable=0;fillColor=none;top=0;left=0;bottom=0;right=0;editable=1;overflow=hidden;whiteSpace=wrap;html=1;swimlaneLine=1;" parent="FOksgfGxdBfBZHIW1R6P-41" vertex="1">
          <mxGeometry width="30" height="30" as="geometry">
            <mxRectangle width="30" height="30" as="alternateBounds" />
          </mxGeometry>
        </mxCell>
        <mxCell id="FOksgfGxdBfBZHIW1R6P-43" value="polo_atendimento_mesas: int" style="shape=partialRectangle;connectable=0;fillColor=none;top=0;left=0;bottom=0;right=0;align=left;spacingLeft=6;overflow=hidden;whiteSpace=wrap;html=1;fontStyle=0;swimlaneLine=1;" parent="FOksgfGxdBfBZHIW1R6P-41" vertex="1">
          <mxGeometry x="30" width="253" height="30" as="geometry">
            <mxRectangle width="253" height="30" as="alternateBounds" />
          </mxGeometry>
        </mxCell>
        <mxCell id="EEHmMVJqZzsaK7D_wYMv-924" style="shape=tableRow;horizontal=0;startSize=0;swimlaneHead=0;swimlaneBody=0;fillColor=none;collapsible=0;dropTarget=0;points=[[0,0.5],[1,0.5]];portConstraint=eastwest;top=0;left=0;right=0;bottom=0;swimlaneLine=1;" vertex="1" parent="FOksgfGxdBfBZHIW1R6P-34">
          <mxGeometry y="119" width="283" height="30" as="geometry" />
        </mxCell>
        <mxCell id="EEHmMVJqZzsaK7D_wYMv-925" value="FK*" style="shape=partialRectangle;connectable=0;fillColor=none;top=0;left=0;bottom=0;right=0;editable=1;overflow=hidden;whiteSpace=wrap;html=1;swimlaneLine=1;" vertex="1" parent="EEHmMVJqZzsaK7D_wYMv-924">
          <mxGeometry width="30" height="30" as="geometry">
            <mxRectangle width="30" height="30" as="alternateBounds" />
          </mxGeometry>
        </mxCell>
        <mxCell id="EEHmMVJqZzsaK7D_wYMv-926" value="endereço_id: int" style="shape=partialRectangle;connectable=0;fillColor=none;top=0;left=0;bottom=0;right=0;align=left;spacingLeft=6;overflow=hidden;whiteSpace=wrap;html=1;fontStyle=0;swimlaneLine=1;" vertex="1" parent="EEHmMVJqZzsaK7D_wYMv-924">
          <mxGeometry x="30" width="253" height="30" as="geometry">
            <mxRectangle width="253" height="30" as="alternateBounds" />
          </mxGeometry>
        </mxCell>
        <mxCell id="EEHmMVJqZzsaK7D_wYMv-927" style="shape=tableRow;horizontal=0;startSize=0;swimlaneHead=0;swimlaneBody=0;fillColor=none;collapsible=0;dropTarget=0;points=[[0,0.5],[1,0.5]];portConstraint=eastwest;top=0;left=0;right=0;bottom=0;swimlaneLine=1;" vertex="1" parent="FOksgfGxdBfBZHIW1R6P-34">
          <mxGeometry y="149" width="283" height="31" as="geometry" />
        </mxCell>
        <mxCell id="EEHmMVJqZzsaK7D_wYMv-928" value="*" style="shape=partialRectangle;connectable=0;fillColor=none;top=0;left=0;bottom=0;right=0;editable=1;overflow=hidden;whiteSpace=wrap;html=1;swimlaneLine=1;" vertex="1" parent="EEHmMVJqZzsaK7D_wYMv-927">
          <mxGeometry width="30" height="31" as="geometry">
            <mxRectangle width="30" height="31" as="alternateBounds" />
          </mxGeometry>
        </mxCell>
        <mxCell id="EEHmMVJqZzsaK7D_wYMv-929" value="row_creation_time: timestamp" style="shape=partialRectangle;connectable=0;fillColor=none;top=0;left=0;bottom=0;right=0;align=left;spacingLeft=6;overflow=hidden;whiteSpace=wrap;html=1;fontStyle=0;swimlaneLine=1;" vertex="1" parent="EEHmMVJqZzsaK7D_wYMv-927">
          <mxGeometry x="30" width="253" height="31" as="geometry">
            <mxRectangle width="253" height="31" as="alternateBounds" />
          </mxGeometry>
        </mxCell>
        <mxCell id="EEHmMVJqZzsaK7D_wYMv-930" style="shape=tableRow;horizontal=0;startSize=0;swimlaneHead=0;swimlaneBody=0;fillColor=none;collapsible=0;dropTarget=0;points=[[0,0.5],[1,0.5]];portConstraint=eastwest;top=0;left=0;right=0;bottom=0;swimlaneLine=1;" vertex="1" parent="FOksgfGxdBfBZHIW1R6P-34">
          <mxGeometry y="180" width="283" height="30" as="geometry" />
        </mxCell>
        <mxCell id="EEHmMVJqZzsaK7D_wYMv-931" value="*" style="shape=partialRectangle;connectable=0;fillColor=none;top=0;left=0;bottom=0;right=0;editable=1;overflow=hidden;whiteSpace=wrap;html=1;swimlaneLine=1;" vertex="1" parent="EEHmMVJqZzsaK7D_wYMv-930">
          <mxGeometry width="30" height="30" as="geometry">
            <mxRectangle width="30" height="30" as="alternateBounds" />
          </mxGeometry>
        </mxCell>
        <mxCell id="EEHmMVJqZzsaK7D_wYMv-932" value="row_update_time: timestamp" style="shape=partialRectangle;connectable=0;fillColor=none;top=0;left=0;bottom=0;right=0;align=left;spacingLeft=6;overflow=hidden;whiteSpace=wrap;html=1;fontStyle=0;swimlaneLine=1;" vertex="1" parent="EEHmMVJqZzsaK7D_wYMv-930">
          <mxGeometry x="30" width="253" height="30" as="geometry">
            <mxRectangle width="253" height="30" as="alternateBounds" />
          </mxGeometry>
        </mxCell>
        <mxCell id="EEHmMVJqZzsaK7D_wYMv-933" style="shape=tableRow;horizontal=0;startSize=0;swimlaneHead=0;swimlaneBody=0;fillColor=none;collapsible=0;dropTarget=0;points=[[0,0.5],[1,0.5]];portConstraint=eastwest;top=0;left=0;right=0;bottom=0;swimlaneLine=1;" vertex="1" parent="FOksgfGxdBfBZHIW1R6P-34">
          <mxGeometry y="210" width="283" height="30" as="geometry" />
        </mxCell>
        <mxCell id="EEHmMVJqZzsaK7D_wYMv-934" value="*" style="shape=partialRectangle;connectable=0;fillColor=none;top=0;left=0;bottom=0;right=0;editable=1;overflow=hidden;whiteSpace=wrap;html=1;swimlaneLine=1;" vertex="1" parent="EEHmMVJqZzsaK7D_wYMv-933">
          <mxGeometry width="30" height="30" as="geometry">
            <mxRectangle width="30" height="30" as="alternateBounds" />
          </mxGeometry>
        </mxCell>
        <mxCell id="EEHmMVJqZzsaK7D_wYMv-935" value="row_creation_user: varchar(30)" style="shape=partialRectangle;connectable=0;fillColor=none;top=0;left=0;bottom=0;right=0;align=left;spacingLeft=6;overflow=hidden;whiteSpace=wrap;html=1;fontStyle=0;swimlaneLine=1;" vertex="1" parent="EEHmMVJqZzsaK7D_wYMv-933">
          <mxGeometry x="30" width="253" height="30" as="geometry">
            <mxRectangle width="253" height="30" as="alternateBounds" />
          </mxGeometry>
        </mxCell>
        <mxCell id="EEHmMVJqZzsaK7D_wYMv-936" style="shape=tableRow;horizontal=0;startSize=0;swimlaneHead=0;swimlaneBody=0;fillColor=none;collapsible=0;dropTarget=0;points=[[0,0.5],[1,0.5]];portConstraint=eastwest;top=0;left=0;right=0;bottom=0;swimlaneLine=1;" vertex="1" parent="FOksgfGxdBfBZHIW1R6P-34">
          <mxGeometry y="240" width="283" height="30" as="geometry" />
        </mxCell>
        <mxCell id="EEHmMVJqZzsaK7D_wYMv-937" value="*" style="shape=partialRectangle;connectable=0;fillColor=none;top=0;left=0;bottom=0;right=0;editable=1;overflow=hidden;whiteSpace=wrap;html=1;swimlaneLine=1;" vertex="1" parent="EEHmMVJqZzsaK7D_wYMv-936">
          <mxGeometry width="30" height="30" as="geometry">
            <mxRectangle width="30" height="30" as="alternateBounds" />
          </mxGeometry>
        </mxCell>
        <mxCell id="EEHmMVJqZzsaK7D_wYMv-938" value="row_update_user: varchar(30)" style="shape=partialRectangle;connectable=0;fillColor=none;top=0;left=0;bottom=0;right=0;align=left;spacingLeft=6;overflow=hidden;whiteSpace=wrap;html=1;fontStyle=0;swimlaneLine=1;" vertex="1" parent="EEHmMVJqZzsaK7D_wYMv-936">
          <mxGeometry x="30" width="253" height="30" as="geometry">
            <mxRectangle width="253" height="30" as="alternateBounds" />
          </mxGeometry>
        </mxCell>
        <mxCell id="EEHmMVJqZzsaK7D_wYMv-939" style="shape=tableRow;horizontal=0;startSize=0;swimlaneHead=0;swimlaneBody=0;fillColor=none;collapsible=0;dropTarget=0;points=[[0,0.5],[1,0.5]];portConstraint=eastwest;top=0;left=0;right=0;bottom=0;swimlaneLine=1;" vertex="1" parent="FOksgfGxdBfBZHIW1R6P-34">
          <mxGeometry y="270" width="283" height="30" as="geometry" />
        </mxCell>
        <mxCell id="EEHmMVJqZzsaK7D_wYMv-940" value="*" style="shape=partialRectangle;connectable=0;fillColor=none;top=0;left=0;bottom=0;right=0;editable=1;overflow=hidden;whiteSpace=wrap;html=1;swimlaneLine=1;" vertex="1" parent="EEHmMVJqZzsaK7D_wYMv-939">
          <mxGeometry width="30" height="30" as="geometry">
            <mxRectangle width="30" height="30" as="alternateBounds" />
          </mxGeometry>
        </mxCell>
        <mxCell id="EEHmMVJqZzsaK7D_wYMv-941" value="row_is_deleted: bool" style="shape=partialRectangle;connectable=0;fillColor=none;top=0;left=0;bottom=0;right=0;align=left;spacingLeft=6;overflow=hidden;whiteSpace=wrap;html=1;fontStyle=0;swimlaneLine=1;" vertex="1" parent="EEHmMVJqZzsaK7D_wYMv-939">
          <mxGeometry x="30" width="253" height="30" as="geometry">
            <mxRectangle width="253" height="30" as="alternateBounds" />
          </mxGeometry>
        </mxCell>
        <mxCell id="FOksgfGxdBfBZHIW1R6P-62" value="Serviço" style="shape=table;startSize=20;container=1;collapsible=1;childLayout=tableLayout;fixedRows=1;rowLines=0;fontStyle=1;align=center;resizeLast=1;html=1;swimlaneLine=1;" parent="WIyWlLk6GJQsqaUBKTNV-1" vertex="1">
          <mxGeometry x="490" y="430" width="283" height="320" as="geometry" />
        </mxCell>
        <mxCell id="FOksgfGxdBfBZHIW1R6P-63" value="" style="shape=tableRow;horizontal=0;startSize=0;swimlaneHead=0;swimlaneBody=0;fillColor=none;collapsible=0;dropTarget=0;points=[[0,0.5],[1,0.5]];portConstraint=eastwest;top=0;left=0;right=0;bottom=1;swimlaneLine=1;" parent="FOksgfGxdBfBZHIW1R6P-62" vertex="1">
          <mxGeometry y="20" width="283" height="29" as="geometry" />
        </mxCell>
        <mxCell id="FOksgfGxdBfBZHIW1R6P-64" value="PK" style="shape=partialRectangle;connectable=0;fillColor=none;top=0;left=0;bottom=0;right=0;fontStyle=1;overflow=hidden;whiteSpace=wrap;html=1;swimlaneLine=1;" parent="FOksgfGxdBfBZHIW1R6P-63" vertex="1">
          <mxGeometry width="30" height="29" as="geometry">
            <mxRectangle width="30" height="29" as="alternateBounds" />
          </mxGeometry>
        </mxCell>
        <mxCell id="FOksgfGxdBfBZHIW1R6P-65" value="serviço_id: int" style="shape=partialRectangle;connectable=0;fillColor=none;top=0;left=0;bottom=0;right=0;align=left;spacingLeft=6;fontStyle=5;overflow=hidden;whiteSpace=wrap;html=1;swimlaneLine=1;" parent="FOksgfGxdBfBZHIW1R6P-63" vertex="1">
          <mxGeometry x="30" width="253" height="29" as="geometry">
            <mxRectangle width="253" height="29" as="alternateBounds" />
          </mxGeometry>
        </mxCell>
        <mxCell id="FOksgfGxdBfBZHIW1R6P-66" value="" style="shape=tableRow;horizontal=0;startSize=0;swimlaneHead=0;swimlaneBody=0;fillColor=none;collapsible=0;dropTarget=0;points=[[0,0.5],[1,0.5]];portConstraint=eastwest;top=0;left=0;right=0;bottom=0;swimlaneLine=1;" parent="FOksgfGxdBfBZHIW1R6P-62" vertex="1">
          <mxGeometry y="49" width="283" height="30" as="geometry" />
        </mxCell>
        <mxCell id="FOksgfGxdBfBZHIW1R6P-67" value="*" style="shape=partialRectangle;connectable=0;fillColor=none;top=0;left=0;bottom=0;right=0;editable=1;overflow=hidden;whiteSpace=wrap;html=1;swimlaneLine=1;" parent="FOksgfGxdBfBZHIW1R6P-66" vertex="1">
          <mxGeometry width="30" height="30" as="geometry">
            <mxRectangle width="30" height="30" as="alternateBounds" />
          </mxGeometry>
        </mxCell>
        <mxCell id="FOksgfGxdBfBZHIW1R6P-68" value="serviço_nome: varchar(256)" style="shape=partialRectangle;connectable=0;fillColor=none;top=0;left=0;bottom=0;right=0;align=left;spacingLeft=6;overflow=hidden;whiteSpace=wrap;html=1;fontStyle=0;swimlaneLine=1;" parent="FOksgfGxdBfBZHIW1R6P-66" vertex="1">
          <mxGeometry x="30" width="253" height="30" as="geometry">
            <mxRectangle width="253" height="30" as="alternateBounds" />
          </mxGeometry>
        </mxCell>
        <mxCell id="FOksgfGxdBfBZHIW1R6P-69" style="shape=tableRow;horizontal=0;startSize=0;swimlaneHead=0;swimlaneBody=0;fillColor=none;collapsible=0;dropTarget=0;points=[[0,0.5],[1,0.5]];portConstraint=eastwest;top=0;left=0;right=0;bottom=0;swimlaneLine=1;" parent="FOksgfGxdBfBZHIW1R6P-62" vertex="1">
          <mxGeometry y="79" width="283" height="31" as="geometry" />
        </mxCell>
        <mxCell id="FOksgfGxdBfBZHIW1R6P-70" value="FK*" style="shape=partialRectangle;connectable=0;fillColor=none;top=0;left=0;bottom=0;right=0;editable=1;overflow=hidden;whiteSpace=wrap;html=1;swimlaneLine=1;" parent="FOksgfGxdBfBZHIW1R6P-69" vertex="1">
          <mxGeometry width="30" height="31" as="geometry">
            <mxRectangle width="30" height="31" as="alternateBounds" />
          </mxGeometry>
        </mxCell>
        <mxCell id="FOksgfGxdBfBZHIW1R6P-71" value="orgao_id: int" style="shape=partialRectangle;connectable=0;fillColor=none;top=0;left=0;bottom=0;right=0;align=left;spacingLeft=6;overflow=hidden;whiteSpace=wrap;html=1;fontStyle=0;swimlaneLine=1;" parent="FOksgfGxdBfBZHIW1R6P-69" vertex="1">
          <mxGeometry x="30" width="253" height="31" as="geometry">
            <mxRectangle width="253" height="31" as="alternateBounds" />
          </mxGeometry>
        </mxCell>
        <mxCell id="FOksgfGxdBfBZHIW1R6P-72" style="shape=tableRow;horizontal=0;startSize=0;swimlaneHead=0;swimlaneBody=0;fillColor=none;collapsible=0;dropTarget=0;points=[[0,0.5],[1,0.5]];portConstraint=eastwest;top=0;left=0;right=0;bottom=0;swimlaneLine=1;" parent="FOksgfGxdBfBZHIW1R6P-62" vertex="1">
          <mxGeometry y="110" width="283" height="30" as="geometry" />
        </mxCell>
        <mxCell id="FOksgfGxdBfBZHIW1R6P-73" value="FK*" style="shape=partialRectangle;connectable=0;fillColor=none;top=0;left=0;bottom=0;right=0;editable=1;overflow=hidden;whiteSpace=wrap;html=1;swimlaneLine=1;" parent="FOksgfGxdBfBZHIW1R6P-72" vertex="1">
          <mxGeometry width="30" height="30" as="geometry">
            <mxRectangle width="30" height="30" as="alternateBounds" />
          </mxGeometry>
        </mxCell>
        <mxCell id="FOksgfGxdBfBZHIW1R6P-74" value="categoria_id: int" style="shape=partialRectangle;connectable=0;fillColor=none;top=0;left=0;bottom=0;right=0;align=left;spacingLeft=6;overflow=hidden;whiteSpace=wrap;html=1;fontStyle=0;swimlaneLine=1;" parent="FOksgfGxdBfBZHIW1R6P-72" vertex="1">
          <mxGeometry x="30" width="253" height="30" as="geometry">
            <mxRectangle width="253" height="30" as="alternateBounds" />
          </mxGeometry>
        </mxCell>
        <mxCell id="FOksgfGxdBfBZHIW1R6P-75" style="shape=tableRow;horizontal=0;startSize=0;swimlaneHead=0;swimlaneBody=0;fillColor=none;collapsible=0;dropTarget=0;points=[[0,0.5],[1,0.5]];portConstraint=eastwest;top=0;left=0;right=0;bottom=0;swimlaneLine=1;" parent="FOksgfGxdBfBZHIW1R6P-62" vertex="1">
          <mxGeometry y="140" width="283" height="30" as="geometry" />
        </mxCell>
        <mxCell id="FOksgfGxdBfBZHIW1R6P-76" value="FK*" style="shape=partialRectangle;connectable=0;fillColor=none;top=0;left=0;bottom=0;right=0;editable=1;overflow=hidden;whiteSpace=wrap;html=1;swimlaneLine=1;" parent="FOksgfGxdBfBZHIW1R6P-75" vertex="1">
          <mxGeometry width="30" height="30" as="geometry">
            <mxRectangle width="30" height="30" as="alternateBounds" />
          </mxGeometry>
        </mxCell>
        <mxCell id="FOksgfGxdBfBZHIW1R6P-77" value="sistema_id: int" style="shape=partialRectangle;connectable=0;fillColor=none;top=0;left=0;bottom=0;right=0;align=left;spacingLeft=6;overflow=hidden;whiteSpace=wrap;html=1;fontStyle=0;swimlaneLine=1;" parent="FOksgfGxdBfBZHIW1R6P-75" vertex="1">
          <mxGeometry x="30" width="253" height="30" as="geometry">
            <mxRectangle width="253" height="30" as="alternateBounds" />
          </mxGeometry>
        </mxCell>
        <mxCell id="EEHmMVJqZzsaK7D_wYMv-987" style="shape=tableRow;horizontal=0;startSize=0;swimlaneHead=0;swimlaneBody=0;fillColor=none;collapsible=0;dropTarget=0;points=[[0,0.5],[1,0.5]];portConstraint=eastwest;top=0;left=0;right=0;bottom=0;swimlaneLine=1;" vertex="1" parent="FOksgfGxdBfBZHIW1R6P-62">
          <mxGeometry y="170" width="283" height="30" as="geometry" />
        </mxCell>
        <mxCell id="EEHmMVJqZzsaK7D_wYMv-988" value="*" style="shape=partialRectangle;connectable=0;fillColor=none;top=0;left=0;bottom=0;right=0;editable=1;overflow=hidden;whiteSpace=wrap;html=1;swimlaneLine=1;" vertex="1" parent="EEHmMVJqZzsaK7D_wYMv-987">
          <mxGeometry width="30" height="30" as="geometry">
            <mxRectangle width="30" height="30" as="alternateBounds" />
          </mxGeometry>
        </mxCell>
        <mxCell id="EEHmMVJqZzsaK7D_wYMv-989" value="row_creation_time: timestamp" style="shape=partialRectangle;connectable=0;fillColor=none;top=0;left=0;bottom=0;right=0;align=left;spacingLeft=6;overflow=hidden;whiteSpace=wrap;html=1;fontStyle=0;swimlaneLine=1;" vertex="1" parent="EEHmMVJqZzsaK7D_wYMv-987">
          <mxGeometry x="30" width="253" height="30" as="geometry">
            <mxRectangle width="253" height="30" as="alternateBounds" />
          </mxGeometry>
        </mxCell>
        <mxCell id="EEHmMVJqZzsaK7D_wYMv-990" style="shape=tableRow;horizontal=0;startSize=0;swimlaneHead=0;swimlaneBody=0;fillColor=none;collapsible=0;dropTarget=0;points=[[0,0.5],[1,0.5]];portConstraint=eastwest;top=0;left=0;right=0;bottom=0;swimlaneLine=1;" vertex="1" parent="FOksgfGxdBfBZHIW1R6P-62">
          <mxGeometry y="200" width="283" height="30" as="geometry" />
        </mxCell>
        <mxCell id="EEHmMVJqZzsaK7D_wYMv-991" value="*" style="shape=partialRectangle;connectable=0;fillColor=none;top=0;left=0;bottom=0;right=0;editable=1;overflow=hidden;whiteSpace=wrap;html=1;swimlaneLine=1;" vertex="1" parent="EEHmMVJqZzsaK7D_wYMv-990">
          <mxGeometry width="30" height="30" as="geometry">
            <mxRectangle width="30" height="30" as="alternateBounds" />
          </mxGeometry>
        </mxCell>
        <mxCell id="EEHmMVJqZzsaK7D_wYMv-992" value="row_update_time: timestamp" style="shape=partialRectangle;connectable=0;fillColor=none;top=0;left=0;bottom=0;right=0;align=left;spacingLeft=6;overflow=hidden;whiteSpace=wrap;html=1;fontStyle=0;swimlaneLine=1;" vertex="1" parent="EEHmMVJqZzsaK7D_wYMv-990">
          <mxGeometry x="30" width="253" height="30" as="geometry">
            <mxRectangle width="253" height="30" as="alternateBounds" />
          </mxGeometry>
        </mxCell>
        <mxCell id="EEHmMVJqZzsaK7D_wYMv-993" style="shape=tableRow;horizontal=0;startSize=0;swimlaneHead=0;swimlaneBody=0;fillColor=none;collapsible=0;dropTarget=0;points=[[0,0.5],[1,0.5]];portConstraint=eastwest;top=0;left=0;right=0;bottom=0;swimlaneLine=1;" vertex="1" parent="FOksgfGxdBfBZHIW1R6P-62">
          <mxGeometry y="230" width="283" height="30" as="geometry" />
        </mxCell>
        <mxCell id="EEHmMVJqZzsaK7D_wYMv-994" value="*" style="shape=partialRectangle;connectable=0;fillColor=none;top=0;left=0;bottom=0;right=0;editable=1;overflow=hidden;whiteSpace=wrap;html=1;swimlaneLine=1;" vertex="1" parent="EEHmMVJqZzsaK7D_wYMv-993">
          <mxGeometry width="30" height="30" as="geometry">
            <mxRectangle width="30" height="30" as="alternateBounds" />
          </mxGeometry>
        </mxCell>
        <mxCell id="EEHmMVJqZzsaK7D_wYMv-995" value="row_creation_user: varchar(30)" style="shape=partialRectangle;connectable=0;fillColor=none;top=0;left=0;bottom=0;right=0;align=left;spacingLeft=6;overflow=hidden;whiteSpace=wrap;html=1;fontStyle=0;swimlaneLine=1;" vertex="1" parent="EEHmMVJqZzsaK7D_wYMv-993">
          <mxGeometry x="30" width="253" height="30" as="geometry">
            <mxRectangle width="253" height="30" as="alternateBounds" />
          </mxGeometry>
        </mxCell>
        <mxCell id="EEHmMVJqZzsaK7D_wYMv-996" style="shape=tableRow;horizontal=0;startSize=0;swimlaneHead=0;swimlaneBody=0;fillColor=none;collapsible=0;dropTarget=0;points=[[0,0.5],[1,0.5]];portConstraint=eastwest;top=0;left=0;right=0;bottom=0;swimlaneLine=1;" vertex="1" parent="FOksgfGxdBfBZHIW1R6P-62">
          <mxGeometry y="260" width="283" height="30" as="geometry" />
        </mxCell>
        <mxCell id="EEHmMVJqZzsaK7D_wYMv-997" value="*" style="shape=partialRectangle;connectable=0;fillColor=none;top=0;left=0;bottom=0;right=0;editable=1;overflow=hidden;whiteSpace=wrap;html=1;swimlaneLine=1;" vertex="1" parent="EEHmMVJqZzsaK7D_wYMv-996">
          <mxGeometry width="30" height="30" as="geometry">
            <mxRectangle width="30" height="30" as="alternateBounds" />
          </mxGeometry>
        </mxCell>
        <mxCell id="EEHmMVJqZzsaK7D_wYMv-998" value="row_update_user: varchar(30)" style="shape=partialRectangle;connectable=0;fillColor=none;top=0;left=0;bottom=0;right=0;align=left;spacingLeft=6;overflow=hidden;whiteSpace=wrap;html=1;fontStyle=0;swimlaneLine=1;" vertex="1" parent="EEHmMVJqZzsaK7D_wYMv-996">
          <mxGeometry x="30" width="253" height="30" as="geometry">
            <mxRectangle width="253" height="30" as="alternateBounds" />
          </mxGeometry>
        </mxCell>
        <mxCell id="EEHmMVJqZzsaK7D_wYMv-999" style="shape=tableRow;horizontal=0;startSize=0;swimlaneHead=0;swimlaneBody=0;fillColor=none;collapsible=0;dropTarget=0;points=[[0,0.5],[1,0.5]];portConstraint=eastwest;top=0;left=0;right=0;bottom=0;swimlaneLine=1;" vertex="1" parent="FOksgfGxdBfBZHIW1R6P-62">
          <mxGeometry y="290" width="283" height="30" as="geometry" />
        </mxCell>
        <mxCell id="EEHmMVJqZzsaK7D_wYMv-1000" value="*" style="shape=partialRectangle;connectable=0;fillColor=none;top=0;left=0;bottom=0;right=0;editable=1;overflow=hidden;whiteSpace=wrap;html=1;swimlaneLine=1;" vertex="1" parent="EEHmMVJqZzsaK7D_wYMv-999">
          <mxGeometry width="30" height="30" as="geometry">
            <mxRectangle width="30" height="30" as="alternateBounds" />
          </mxGeometry>
        </mxCell>
        <mxCell id="EEHmMVJqZzsaK7D_wYMv-1001" value="row_is_deleted: bool" style="shape=partialRectangle;connectable=0;fillColor=none;top=0;left=0;bottom=0;right=0;align=left;spacingLeft=6;overflow=hidden;whiteSpace=wrap;html=1;fontStyle=0;swimlaneLine=1;" vertex="1" parent="EEHmMVJqZzsaK7D_wYMv-999">
          <mxGeometry x="30" width="253" height="30" as="geometry">
            <mxRectangle width="253" height="30" as="alternateBounds" />
          </mxGeometry>
        </mxCell>
        <mxCell id="6It09mlc2z2I1y0DJIgb-1" value="Endereço" style="shape=table;startSize=30;container=1;collapsible=1;childLayout=tableLayout;fixedRows=1;rowLines=0;fontStyle=1;align=center;resizeLast=1;html=1;swimlaneLine=1;" parent="WIyWlLk6GJQsqaUBKTNV-1" vertex="1">
          <mxGeometry x="490" y="-160" width="283" height="450" as="geometry" />
        </mxCell>
        <mxCell id="6It09mlc2z2I1y0DJIgb-2" value="" style="shape=tableRow;horizontal=0;startSize=0;swimlaneHead=0;swimlaneBody=0;fillColor=none;collapsible=0;dropTarget=0;points=[[0,0.5],[1,0.5]];portConstraint=eastwest;top=0;left=0;right=0;bottom=1;swimlaneLine=1;" parent="6It09mlc2z2I1y0DJIgb-1" vertex="1">
          <mxGeometry y="30" width="283" height="29" as="geometry" />
        </mxCell>
        <mxCell id="6It09mlc2z2I1y0DJIgb-3" value="PK" style="shape=partialRectangle;connectable=0;fillColor=none;top=0;left=0;bottom=0;right=0;fontStyle=1;overflow=hidden;whiteSpace=wrap;html=1;swimlaneLine=1;" parent="6It09mlc2z2I1y0DJIgb-2" vertex="1">
          <mxGeometry width="30" height="29" as="geometry">
            <mxRectangle width="30" height="29" as="alternateBounds" />
          </mxGeometry>
        </mxCell>
        <mxCell id="6It09mlc2z2I1y0DJIgb-4" value="endereço_id: int" style="shape=partialRectangle;connectable=0;fillColor=none;top=0;left=0;bottom=0;right=0;align=left;spacingLeft=6;fontStyle=5;overflow=hidden;whiteSpace=wrap;html=1;swimlaneLine=1;" parent="6It09mlc2z2I1y0DJIgb-2" vertex="1">
          <mxGeometry x="30" width="253" height="29" as="geometry">
            <mxRectangle width="253" height="29" as="alternateBounds" />
          </mxGeometry>
        </mxCell>
        <mxCell id="6It09mlc2z2I1y0DJIgb-5" value="" style="shape=tableRow;horizontal=0;startSize=0;swimlaneHead=0;swimlaneBody=0;fillColor=none;collapsible=0;dropTarget=0;points=[[0,0.5],[1,0.5]];portConstraint=eastwest;top=0;left=0;right=0;bottom=0;swimlaneLine=1;" parent="6It09mlc2z2I1y0DJIgb-1" vertex="1">
          <mxGeometry y="59" width="283" height="30" as="geometry" />
        </mxCell>
        <mxCell id="6It09mlc2z2I1y0DJIgb-6" value="*" style="shape=partialRectangle;connectable=0;fillColor=none;top=0;left=0;bottom=0;right=0;editable=1;overflow=hidden;whiteSpace=wrap;html=1;swimlaneLine=1;" parent="6It09mlc2z2I1y0DJIgb-5" vertex="1">
          <mxGeometry width="30" height="30" as="geometry">
            <mxRectangle width="30" height="30" as="alternateBounds" />
          </mxGeometry>
        </mxCell>
        <mxCell id="6It09mlc2z2I1y0DJIgb-7" value="endereço_logradouro: varchar(256)" style="shape=partialRectangle;connectable=0;fillColor=none;top=0;left=0;bottom=0;right=0;align=left;spacingLeft=6;overflow=hidden;whiteSpace=wrap;html=1;fontStyle=0;swimlaneLine=1;" parent="6It09mlc2z2I1y0DJIgb-5" vertex="1">
          <mxGeometry x="30" width="253" height="30" as="geometry">
            <mxRectangle width="253" height="30" as="alternateBounds" />
          </mxGeometry>
        </mxCell>
        <mxCell id="6It09mlc2z2I1y0DJIgb-8" style="shape=tableRow;horizontal=0;startSize=0;swimlaneHead=0;swimlaneBody=0;fillColor=none;collapsible=0;dropTarget=0;points=[[0,0.5],[1,0.5]];portConstraint=eastwest;top=0;left=0;right=0;bottom=0;swimlaneLine=1;" parent="6It09mlc2z2I1y0DJIgb-1" vertex="1">
          <mxGeometry y="89" width="283" height="30" as="geometry" />
        </mxCell>
        <mxCell id="6It09mlc2z2I1y0DJIgb-9" value="*" style="shape=partialRectangle;connectable=0;fillColor=none;top=0;left=0;bottom=0;right=0;editable=1;overflow=hidden;whiteSpace=wrap;html=1;swimlaneLine=1;" parent="6It09mlc2z2I1y0DJIgb-8" vertex="1">
          <mxGeometry width="30" height="30" as="geometry">
            <mxRectangle width="30" height="30" as="alternateBounds" />
          </mxGeometry>
        </mxCell>
        <mxCell id="6It09mlc2z2I1y0DJIgb-10" value="endereço_cidade: varchar(64)" style="shape=partialRectangle;connectable=0;fillColor=none;top=0;left=0;bottom=0;right=0;align=left;spacingLeft=6;overflow=hidden;whiteSpace=wrap;html=1;fontStyle=0;swimlaneLine=1;" parent="6It09mlc2z2I1y0DJIgb-8" vertex="1">
          <mxGeometry x="30" width="253" height="30" as="geometry">
            <mxRectangle width="253" height="30" as="alternateBounds" />
          </mxGeometry>
        </mxCell>
        <mxCell id="6It09mlc2z2I1y0DJIgb-11" style="shape=tableRow;horizontal=0;startSize=0;swimlaneHead=0;swimlaneBody=0;fillColor=none;collapsible=0;dropTarget=0;points=[[0,0.5],[1,0.5]];portConstraint=eastwest;top=0;left=0;right=0;bottom=0;swimlaneLine=1;" parent="6It09mlc2z2I1y0DJIgb-1" vertex="1">
          <mxGeometry y="119" width="283" height="31" as="geometry" />
        </mxCell>
        <mxCell id="6It09mlc2z2I1y0DJIgb-12" value="*" style="shape=partialRectangle;connectable=0;fillColor=none;top=0;left=0;bottom=0;right=0;editable=1;overflow=hidden;whiteSpace=wrap;html=1;swimlaneLine=1;" parent="6It09mlc2z2I1y0DJIgb-11" vertex="1">
          <mxGeometry width="30" height="31" as="geometry">
            <mxRectangle width="30" height="31" as="alternateBounds" />
          </mxGeometry>
        </mxCell>
        <mxCell id="6It09mlc2z2I1y0DJIgb-13" value="endereço_bairro: varchar(64)" style="shape=partialRectangle;connectable=0;fillColor=none;top=0;left=0;bottom=0;right=0;align=left;spacingLeft=6;overflow=hidden;whiteSpace=wrap;html=1;fontStyle=0;swimlaneLine=1;" parent="6It09mlc2z2I1y0DJIgb-11" vertex="1">
          <mxGeometry x="30" width="253" height="31" as="geometry">
            <mxRectangle width="253" height="31" as="alternateBounds" />
          </mxGeometry>
        </mxCell>
        <mxCell id="6It09mlc2z2I1y0DJIgb-14" style="shape=tableRow;horizontal=0;startSize=0;swimlaneHead=0;swimlaneBody=0;fillColor=none;collapsible=0;dropTarget=0;points=[[0,0.5],[1,0.5]];portConstraint=eastwest;top=0;left=0;right=0;bottom=0;swimlaneLine=1;" parent="6It09mlc2z2I1y0DJIgb-1" vertex="1">
          <mxGeometry y="150" width="283" height="30" as="geometry" />
        </mxCell>
        <mxCell id="6It09mlc2z2I1y0DJIgb-15" value="*" style="shape=partialRectangle;connectable=0;fillColor=none;top=0;left=0;bottom=0;right=0;editable=1;overflow=hidden;whiteSpace=wrap;html=1;swimlaneLine=1;" parent="6It09mlc2z2I1y0DJIgb-14" vertex="1">
          <mxGeometry width="30" height="30" as="geometry">
            <mxRectangle width="30" height="30" as="alternateBounds" />
          </mxGeometry>
        </mxCell>
        <mxCell id="6It09mlc2z2I1y0DJIgb-16" value="endereço_cep: varchar(9)" style="shape=partialRectangle;connectable=0;fillColor=none;top=0;left=0;bottom=0;right=0;align=left;spacingLeft=6;overflow=hidden;whiteSpace=wrap;html=1;fontStyle=0;swimlaneLine=1;" parent="6It09mlc2z2I1y0DJIgb-14" vertex="1">
          <mxGeometry x="30" width="253" height="30" as="geometry">
            <mxRectangle width="253" height="30" as="alternateBounds" />
          </mxGeometry>
        </mxCell>
        <mxCell id="6It09mlc2z2I1y0DJIgb-17" style="shape=tableRow;horizontal=0;startSize=0;swimlaneHead=0;swimlaneBody=0;fillColor=none;collapsible=0;dropTarget=0;points=[[0,0.5],[1,0.5]];portConstraint=eastwest;top=0;left=0;right=0;bottom=0;swimlaneLine=1;" parent="6It09mlc2z2I1y0DJIgb-1" vertex="1">
          <mxGeometry y="180" width="283" height="30" as="geometry" />
        </mxCell>
        <mxCell id="6It09mlc2z2I1y0DJIgb-18" value="*" style="shape=partialRectangle;connectable=0;fillColor=none;top=0;left=0;bottom=0;right=0;editable=1;overflow=hidden;whiteSpace=wrap;html=1;swimlaneLine=1;" parent="6It09mlc2z2I1y0DJIgb-17" vertex="1">
          <mxGeometry width="30" height="30" as="geometry">
            <mxRectangle width="30" height="30" as="alternateBounds" />
          </mxGeometry>
        </mxCell>
        <mxCell id="6It09mlc2z2I1y0DJIgb-19" value="&lt;span style=&quot;color: rgb(0, 0, 0); font-family: Helvetica; font-size: 12px; font-style: normal; font-variant-ligatures: normal; font-variant-caps: normal; font-weight: 400; letter-spacing: normal; orphans: 2; text-align: left; text-indent: 0px; text-transform: none; widows: 2; word-spacing: 0px; -webkit-text-stroke-width: 0px; white-space: normal; text-decoration-thickness: initial; text-decoration-style: initial; text-decoration-color: initial; float: none; display: inline !important;&quot;&gt;&lt;span&gt;endereço_&lt;/span&gt;estado: varchar(2)&lt;/span&gt;" style="shape=partialRectangle;connectable=0;fillColor=none;top=0;left=0;bottom=0;right=0;align=left;spacingLeft=6;overflow=hidden;whiteSpace=wrap;html=1;fontStyle=0;swimlaneLine=1;" parent="6It09mlc2z2I1y0DJIgb-17" vertex="1">
          <mxGeometry x="30" width="253" height="30" as="geometry">
            <mxRectangle width="253" height="30" as="alternateBounds" />
          </mxGeometry>
        </mxCell>
        <mxCell id="6It09mlc2z2I1y0DJIgb-20" style="shape=tableRow;horizontal=0;startSize=0;swimlaneHead=0;swimlaneBody=0;fillColor=none;collapsible=0;dropTarget=0;points=[[0,0.5],[1,0.5]];portConstraint=eastwest;top=0;left=0;right=0;bottom=0;swimlaneLine=1;" parent="6It09mlc2z2I1y0DJIgb-1" vertex="1">
          <mxGeometry y="210" width="283" height="30" as="geometry" />
        </mxCell>
        <mxCell id="6It09mlc2z2I1y0DJIgb-21" value="" style="shape=partialRectangle;connectable=0;fillColor=none;top=0;left=0;bottom=0;right=0;editable=1;overflow=hidden;whiteSpace=wrap;html=1;swimlaneLine=1;" parent="6It09mlc2z2I1y0DJIgb-20" vertex="1">
          <mxGeometry width="30" height="30" as="geometry">
            <mxRectangle width="30" height="30" as="alternateBounds" />
          </mxGeometry>
        </mxCell>
        <mxCell id="6It09mlc2z2I1y0DJIgb-22" value="endereço_número: varchar(10)" style="shape=partialRectangle;connectable=0;fillColor=none;top=0;left=0;bottom=0;right=0;align=left;spacingLeft=6;overflow=hidden;whiteSpace=wrap;html=1;fontStyle=0;swimlaneLine=1;" parent="6It09mlc2z2I1y0DJIgb-20" vertex="1">
          <mxGeometry x="30" width="253" height="30" as="geometry">
            <mxRectangle width="253" height="30" as="alternateBounds" />
          </mxGeometry>
        </mxCell>
        <mxCell id="6It09mlc2z2I1y0DJIgb-23" style="shape=tableRow;horizontal=0;startSize=0;swimlaneHead=0;swimlaneBody=0;fillColor=none;collapsible=0;dropTarget=0;points=[[0,0.5],[1,0.5]];portConstraint=eastwest;top=0;left=0;right=0;bottom=0;swimlaneLine=1;" parent="6It09mlc2z2I1y0DJIgb-1" vertex="1">
          <mxGeometry y="240" width="283" height="30" as="geometry" />
        </mxCell>
        <mxCell id="6It09mlc2z2I1y0DJIgb-24" value="FK*" style="shape=partialRectangle;connectable=0;fillColor=none;top=0;left=0;bottom=0;right=0;editable=1;overflow=hidden;whiteSpace=wrap;html=1;swimlaneLine=1;" parent="6It09mlc2z2I1y0DJIgb-23" vertex="1">
          <mxGeometry width="30" height="30" as="geometry">
            <mxRectangle width="30" height="30" as="alternateBounds" />
          </mxGeometry>
        </mxCell>
        <mxCell id="6It09mlc2z2I1y0DJIgb-25" value="categoria_endereco_id: smallint" style="shape=partialRectangle;connectable=0;fillColor=none;top=0;left=0;bottom=0;right=0;align=left;spacingLeft=6;overflow=hidden;whiteSpace=wrap;html=1;fontStyle=0;swimlaneLine=1;" parent="6It09mlc2z2I1y0DJIgb-23" vertex="1">
          <mxGeometry x="30" width="253" height="30" as="geometry">
            <mxRectangle width="253" height="30" as="alternateBounds" />
          </mxGeometry>
        </mxCell>
        <mxCell id="6It09mlc2z2I1y0DJIgb-83" style="shape=tableRow;horizontal=0;startSize=0;swimlaneHead=0;swimlaneBody=0;fillColor=none;collapsible=0;dropTarget=0;points=[[0,0.5],[1,0.5]];portConstraint=eastwest;top=0;left=0;right=0;bottom=0;swimlaneLine=1;" parent="6It09mlc2z2I1y0DJIgb-1" vertex="1">
          <mxGeometry y="270" width="283" height="30" as="geometry" />
        </mxCell>
        <mxCell id="6It09mlc2z2I1y0DJIgb-84" value="" style="shape=partialRectangle;connectable=0;fillColor=none;top=0;left=0;bottom=0;right=0;editable=1;overflow=hidden;whiteSpace=wrap;html=1;swimlaneLine=1;" parent="6It09mlc2z2I1y0DJIgb-83" vertex="1">
          <mxGeometry width="30" height="30" as="geometry">
            <mxRectangle width="30" height="30" as="alternateBounds" />
          </mxGeometry>
        </mxCell>
        <mxCell id="6It09mlc2z2I1y0DJIgb-85" value="endereço_complemento: varchar(64)" style="shape=partialRectangle;connectable=0;fillColor=none;top=0;left=0;bottom=0;right=0;align=left;spacingLeft=6;overflow=hidden;whiteSpace=wrap;html=1;fontStyle=0;swimlaneLine=1;" parent="6It09mlc2z2I1y0DJIgb-83" vertex="1">
          <mxGeometry x="30" width="253" height="30" as="geometry">
            <mxRectangle width="253" height="30" as="alternateBounds" />
          </mxGeometry>
        </mxCell>
        <mxCell id="EEHmMVJqZzsaK7D_wYMv-909" style="shape=tableRow;horizontal=0;startSize=0;swimlaneHead=0;swimlaneBody=0;fillColor=none;collapsible=0;dropTarget=0;points=[[0,0.5],[1,0.5]];portConstraint=eastwest;top=0;left=0;right=0;bottom=0;swimlaneLine=1;" vertex="1" parent="6It09mlc2z2I1y0DJIgb-1">
          <mxGeometry y="300" width="283" height="30" as="geometry" />
        </mxCell>
        <mxCell id="EEHmMVJqZzsaK7D_wYMv-910" value="*" style="shape=partialRectangle;connectable=0;fillColor=none;top=0;left=0;bottom=0;right=0;editable=1;overflow=hidden;whiteSpace=wrap;html=1;swimlaneLine=1;" vertex="1" parent="EEHmMVJqZzsaK7D_wYMv-909">
          <mxGeometry width="30" height="30" as="geometry">
            <mxRectangle width="30" height="30" as="alternateBounds" />
          </mxGeometry>
        </mxCell>
        <mxCell id="EEHmMVJqZzsaK7D_wYMv-911" value="row_creation_time: timestamp" style="shape=partialRectangle;connectable=0;fillColor=none;top=0;left=0;bottom=0;right=0;align=left;spacingLeft=6;overflow=hidden;whiteSpace=wrap;html=1;fontStyle=0;swimlaneLine=1;" vertex="1" parent="EEHmMVJqZzsaK7D_wYMv-909">
          <mxGeometry x="30" width="253" height="30" as="geometry">
            <mxRectangle width="253" height="30" as="alternateBounds" />
          </mxGeometry>
        </mxCell>
        <mxCell id="EEHmMVJqZzsaK7D_wYMv-912" style="shape=tableRow;horizontal=0;startSize=0;swimlaneHead=0;swimlaneBody=0;fillColor=none;collapsible=0;dropTarget=0;points=[[0,0.5],[1,0.5]];portConstraint=eastwest;top=0;left=0;right=0;bottom=0;swimlaneLine=1;" vertex="1" parent="6It09mlc2z2I1y0DJIgb-1">
          <mxGeometry y="330" width="283" height="30" as="geometry" />
        </mxCell>
        <mxCell id="EEHmMVJqZzsaK7D_wYMv-913" value="*" style="shape=partialRectangle;connectable=0;fillColor=none;top=0;left=0;bottom=0;right=0;editable=1;overflow=hidden;whiteSpace=wrap;html=1;swimlaneLine=1;" vertex="1" parent="EEHmMVJqZzsaK7D_wYMv-912">
          <mxGeometry width="30" height="30" as="geometry">
            <mxRectangle width="30" height="30" as="alternateBounds" />
          </mxGeometry>
        </mxCell>
        <mxCell id="EEHmMVJqZzsaK7D_wYMv-914" value="row_update_time: timestamp" style="shape=partialRectangle;connectable=0;fillColor=none;top=0;left=0;bottom=0;right=0;align=left;spacingLeft=6;overflow=hidden;whiteSpace=wrap;html=1;fontStyle=0;swimlaneLine=1;" vertex="1" parent="EEHmMVJqZzsaK7D_wYMv-912">
          <mxGeometry x="30" width="253" height="30" as="geometry">
            <mxRectangle width="253" height="30" as="alternateBounds" />
          </mxGeometry>
        </mxCell>
        <mxCell id="EEHmMVJqZzsaK7D_wYMv-915" style="shape=tableRow;horizontal=0;startSize=0;swimlaneHead=0;swimlaneBody=0;fillColor=none;collapsible=0;dropTarget=0;points=[[0,0.5],[1,0.5]];portConstraint=eastwest;top=0;left=0;right=0;bottom=0;swimlaneLine=1;" vertex="1" parent="6It09mlc2z2I1y0DJIgb-1">
          <mxGeometry y="360" width="283" height="30" as="geometry" />
        </mxCell>
        <mxCell id="EEHmMVJqZzsaK7D_wYMv-916" value="*" style="shape=partialRectangle;connectable=0;fillColor=none;top=0;left=0;bottom=0;right=0;editable=1;overflow=hidden;whiteSpace=wrap;html=1;swimlaneLine=1;" vertex="1" parent="EEHmMVJqZzsaK7D_wYMv-915">
          <mxGeometry width="30" height="30" as="geometry">
            <mxRectangle width="30" height="30" as="alternateBounds" />
          </mxGeometry>
        </mxCell>
        <mxCell id="EEHmMVJqZzsaK7D_wYMv-917" value="row_creation_user: varchar(30)" style="shape=partialRectangle;connectable=0;fillColor=none;top=0;left=0;bottom=0;right=0;align=left;spacingLeft=6;overflow=hidden;whiteSpace=wrap;html=1;fontStyle=0;swimlaneLine=1;" vertex="1" parent="EEHmMVJqZzsaK7D_wYMv-915">
          <mxGeometry x="30" width="253" height="30" as="geometry">
            <mxRectangle width="253" height="30" as="alternateBounds" />
          </mxGeometry>
        </mxCell>
        <mxCell id="EEHmMVJqZzsaK7D_wYMv-918" style="shape=tableRow;horizontal=0;startSize=0;swimlaneHead=0;swimlaneBody=0;fillColor=none;collapsible=0;dropTarget=0;points=[[0,0.5],[1,0.5]];portConstraint=eastwest;top=0;left=0;right=0;bottom=0;swimlaneLine=1;" vertex="1" parent="6It09mlc2z2I1y0DJIgb-1">
          <mxGeometry y="390" width="283" height="30" as="geometry" />
        </mxCell>
        <mxCell id="EEHmMVJqZzsaK7D_wYMv-919" value="*" style="shape=partialRectangle;connectable=0;fillColor=none;top=0;left=0;bottom=0;right=0;editable=1;overflow=hidden;whiteSpace=wrap;html=1;swimlaneLine=1;" vertex="1" parent="EEHmMVJqZzsaK7D_wYMv-918">
          <mxGeometry width="30" height="30" as="geometry">
            <mxRectangle width="30" height="30" as="alternateBounds" />
          </mxGeometry>
        </mxCell>
        <mxCell id="EEHmMVJqZzsaK7D_wYMv-920" value="row_update_user: varchar(30)" style="shape=partialRectangle;connectable=0;fillColor=none;top=0;left=0;bottom=0;right=0;align=left;spacingLeft=6;overflow=hidden;whiteSpace=wrap;html=1;fontStyle=0;swimlaneLine=1;" vertex="1" parent="EEHmMVJqZzsaK7D_wYMv-918">
          <mxGeometry x="30" width="253" height="30" as="geometry">
            <mxRectangle width="253" height="30" as="alternateBounds" />
          </mxGeometry>
        </mxCell>
        <mxCell id="EEHmMVJqZzsaK7D_wYMv-921" style="shape=tableRow;horizontal=0;startSize=0;swimlaneHead=0;swimlaneBody=0;fillColor=none;collapsible=0;dropTarget=0;points=[[0,0.5],[1,0.5]];portConstraint=eastwest;top=0;left=0;right=0;bottom=0;swimlaneLine=1;" vertex="1" parent="6It09mlc2z2I1y0DJIgb-1">
          <mxGeometry y="420" width="283" height="30" as="geometry" />
        </mxCell>
        <mxCell id="EEHmMVJqZzsaK7D_wYMv-922" value="*" style="shape=partialRectangle;connectable=0;fillColor=none;top=0;left=0;bottom=0;right=0;editable=1;overflow=hidden;whiteSpace=wrap;html=1;swimlaneLine=1;" vertex="1" parent="EEHmMVJqZzsaK7D_wYMv-921">
          <mxGeometry width="30" height="30" as="geometry">
            <mxRectangle width="30" height="30" as="alternateBounds" />
          </mxGeometry>
        </mxCell>
        <mxCell id="EEHmMVJqZzsaK7D_wYMv-923" value="row_is_deleted: bool" style="shape=partialRectangle;connectable=0;fillColor=none;top=0;left=0;bottom=0;right=0;align=left;spacingLeft=6;overflow=hidden;whiteSpace=wrap;html=1;fontStyle=0;swimlaneLine=1;" vertex="1" parent="EEHmMVJqZzsaK7D_wYMv-921">
          <mxGeometry x="30" width="253" height="30" as="geometry">
            <mxRectangle width="253" height="30" as="alternateBounds" />
          </mxGeometry>
        </mxCell>
        <mxCell id="6It09mlc2z2I1y0DJIgb-51" style="edgeStyle=orthogonalEdgeStyle;rounded=0;orthogonalLoop=1;jettySize=auto;html=1;exitX=0;exitY=0.5;exitDx=0;exitDy=0;entryX=1;entryY=0.5;entryDx=0;entryDy=0;swimlaneLine=1;" parent="WIyWlLk6GJQsqaUBKTNV-1" source="6It09mlc2z2I1y0DJIgb-2" target="FOksgfGxdBfBZHIW1R6P-25" edge="1">
          <mxGeometry relative="1" as="geometry" />
        </mxCell>
        <mxCell id="6It09mlc2z2I1y0DJIgb-52" style="edgeStyle=orthogonalEdgeStyle;rounded=0;orthogonalLoop=1;jettySize=auto;html=1;exitX=1;exitY=0.5;exitDx=0;exitDy=0;swimlaneLine=1;" parent="WIyWlLk6GJQsqaUBKTNV-1" source="6It09mlc2z2I1y0DJIgb-2" target="EEHmMVJqZzsaK7D_wYMv-924" edge="1">
          <mxGeometry relative="1" as="geometry" />
        </mxCell>
        <mxCell id="6It09mlc2z2I1y0DJIgb-54" style="edgeStyle=orthogonalEdgeStyle;rounded=0;orthogonalLoop=1;jettySize=auto;html=1;exitX=0;exitY=0.5;exitDx=0;exitDy=0;entryX=1;entryY=0.5;entryDx=0;entryDy=0;swimlaneLine=1;" parent="WIyWlLk6GJQsqaUBKTNV-1" source="6It09mlc2z2I1y0DJIgb-31" target="FOksgfGxdBfBZHIW1R6P-69" edge="1">
          <mxGeometry relative="1" as="geometry" />
        </mxCell>
        <mxCell id="6It09mlc2z2I1y0DJIgb-55" style="edgeStyle=orthogonalEdgeStyle;rounded=0;orthogonalLoop=1;jettySize=auto;html=1;exitX=0;exitY=0.5;exitDx=0;exitDy=0;entryX=1;entryY=0.5;entryDx=0;entryDy=0;swimlaneLine=1;" parent="WIyWlLk6GJQsqaUBKTNV-1" source="6It09mlc2z2I1y0DJIgb-41" target="FOksgfGxdBfBZHIW1R6P-72" edge="1">
          <mxGeometry relative="1" as="geometry">
            <Array as="points">
              <mxPoint x="840" y="305" />
              <mxPoint x="840" y="555" />
            </Array>
          </mxGeometry>
        </mxCell>
        <mxCell id="6It09mlc2z2I1y0DJIgb-56" style="edgeStyle=orthogonalEdgeStyle;rounded=0;orthogonalLoop=1;jettySize=auto;html=1;exitX=0;exitY=0.5;exitDx=0;exitDy=0;entryX=1;entryY=0.5;entryDx=0;entryDy=0;swimlaneLine=1;" parent="WIyWlLk6GJQsqaUBKTNV-1" source="FOksgfGxdBfBZHIW1R6P-92" target="FOksgfGxdBfBZHIW1R6P-75" edge="1">
          <mxGeometry relative="1" as="geometry">
            <Array as="points">
              <mxPoint x="840" y="575" />
              <mxPoint x="840" y="585" />
            </Array>
          </mxGeometry>
        </mxCell>
        <mxCell id="6It09mlc2z2I1y0DJIgb-86" value="Horario_Atendimento" style="shape=table;startSize=30;container=1;collapsible=1;childLayout=tableLayout;fixedRows=1;rowLines=0;fontStyle=1;align=center;resizeLast=1;html=1;swimlaneLine=1;" parent="WIyWlLk6GJQsqaUBKTNV-1" vertex="1">
          <mxGeometry x="470" y="770" width="303" height="360" as="geometry" />
        </mxCell>
        <mxCell id="6It09mlc2z2I1y0DJIgb-87" value="" style="shape=tableRow;horizontal=0;startSize=0;swimlaneHead=0;swimlaneBody=0;fillColor=none;collapsible=0;dropTarget=0;points=[[0,0.5],[1,0.5]];portConstraint=eastwest;top=0;left=0;right=0;bottom=1;swimlaneLine=1;" parent="6It09mlc2z2I1y0DJIgb-86" vertex="1">
          <mxGeometry y="30" width="303" height="29" as="geometry" />
        </mxCell>
        <mxCell id="6It09mlc2z2I1y0DJIgb-88" value="PK" style="shape=partialRectangle;connectable=0;fillColor=none;top=0;left=0;bottom=0;right=0;fontStyle=1;overflow=hidden;whiteSpace=wrap;html=1;swimlaneLine=1;" parent="6It09mlc2z2I1y0DJIgb-87" vertex="1">
          <mxGeometry width="30" height="29" as="geometry">
            <mxRectangle width="30" height="29" as="alternateBounds" />
          </mxGeometry>
        </mxCell>
        <mxCell id="6It09mlc2z2I1y0DJIgb-89" value="horario_atendimento_id: int" style="shape=partialRectangle;connectable=0;fillColor=none;top=0;left=0;bottom=0;right=0;align=left;spacingLeft=6;fontStyle=5;overflow=hidden;whiteSpace=wrap;html=1;swimlaneLine=1;" parent="6It09mlc2z2I1y0DJIgb-87" vertex="1">
          <mxGeometry x="30" width="273" height="29" as="geometry">
            <mxRectangle width="273" height="29" as="alternateBounds" />
          </mxGeometry>
        </mxCell>
        <mxCell id="6It09mlc2z2I1y0DJIgb-90" value="" style="shape=tableRow;horizontal=0;startSize=0;swimlaneHead=0;swimlaneBody=0;fillColor=none;collapsible=0;dropTarget=0;points=[[0,0.5],[1,0.5]];portConstraint=eastwest;top=0;left=0;right=0;bottom=0;swimlaneLine=1;" parent="6It09mlc2z2I1y0DJIgb-86" vertex="1">
          <mxGeometry y="59" width="303" height="30" as="geometry" />
        </mxCell>
        <mxCell id="6It09mlc2z2I1y0DJIgb-91" value="*" style="shape=partialRectangle;connectable=0;fillColor=none;top=0;left=0;bottom=0;right=0;editable=1;overflow=hidden;whiteSpace=wrap;html=1;swimlaneLine=1;" parent="6It09mlc2z2I1y0DJIgb-90" vertex="1">
          <mxGeometry width="30" height="30" as="geometry">
            <mxRectangle width="30" height="30" as="alternateBounds" />
          </mxGeometry>
        </mxCell>
        <mxCell id="6It09mlc2z2I1y0DJIgb-92" value="horario_atendimento_dia_semana: int" style="shape=partialRectangle;connectable=0;fillColor=none;top=0;left=0;bottom=0;right=0;align=left;spacingLeft=6;overflow=hidden;whiteSpace=wrap;html=1;fontStyle=0;swimlaneLine=1;" parent="6It09mlc2z2I1y0DJIgb-90" vertex="1">
          <mxGeometry x="30" width="273" height="30" as="geometry">
            <mxRectangle width="273" height="30" as="alternateBounds" />
          </mxGeometry>
        </mxCell>
        <mxCell id="6It09mlc2z2I1y0DJIgb-93" style="shape=tableRow;horizontal=0;startSize=0;swimlaneHead=0;swimlaneBody=0;fillColor=none;collapsible=0;dropTarget=0;points=[[0,0.5],[1,0.5]];portConstraint=eastwest;top=0;left=0;right=0;bottom=0;swimlaneLine=1;" parent="6It09mlc2z2I1y0DJIgb-86" vertex="1">
          <mxGeometry y="89" width="303" height="30" as="geometry" />
        </mxCell>
        <mxCell id="6It09mlc2z2I1y0DJIgb-94" value="*" style="shape=partialRectangle;connectable=0;fillColor=none;top=0;left=0;bottom=0;right=0;editable=1;overflow=hidden;whiteSpace=wrap;html=1;swimlaneLine=1;" parent="6It09mlc2z2I1y0DJIgb-93" vertex="1">
          <mxGeometry width="30" height="30" as="geometry">
            <mxRectangle width="30" height="30" as="alternateBounds" />
          </mxGeometry>
        </mxCell>
        <mxCell id="6It09mlc2z2I1y0DJIgb-95" value="horario_atendimento_hora_inicio: time" style="shape=partialRectangle;connectable=0;fillColor=none;top=0;left=0;bottom=0;right=0;align=left;spacingLeft=6;overflow=hidden;whiteSpace=wrap;html=1;fontStyle=0;swimlaneLine=1;" parent="6It09mlc2z2I1y0DJIgb-93" vertex="1">
          <mxGeometry x="30" width="273" height="30" as="geometry">
            <mxRectangle width="273" height="30" as="alternateBounds" />
          </mxGeometry>
        </mxCell>
        <mxCell id="6It09mlc2z2I1y0DJIgb-96" style="shape=tableRow;horizontal=0;startSize=0;swimlaneHead=0;swimlaneBody=0;fillColor=none;collapsible=0;dropTarget=0;points=[[0,0.5],[1,0.5]];portConstraint=eastwest;top=0;left=0;right=0;bottom=0;swimlaneLine=1;" parent="6It09mlc2z2I1y0DJIgb-86" vertex="1">
          <mxGeometry y="119" width="303" height="31" as="geometry" />
        </mxCell>
        <mxCell id="6It09mlc2z2I1y0DJIgb-97" value="*" style="shape=partialRectangle;connectable=0;fillColor=none;top=0;left=0;bottom=0;right=0;editable=1;overflow=hidden;whiteSpace=wrap;html=1;swimlaneLine=1;" parent="6It09mlc2z2I1y0DJIgb-96" vertex="1">
          <mxGeometry width="30" height="31" as="geometry">
            <mxRectangle width="30" height="31" as="alternateBounds" />
          </mxGeometry>
        </mxCell>
        <mxCell id="6It09mlc2z2I1y0DJIgb-98" value="horario_atendimento_hora_fim: time" style="shape=partialRectangle;connectable=0;fillColor=none;top=0;left=0;bottom=0;right=0;align=left;spacingLeft=6;overflow=hidden;whiteSpace=wrap;html=1;fontStyle=0;swimlaneLine=1;" parent="6It09mlc2z2I1y0DJIgb-96" vertex="1">
          <mxGeometry x="30" width="273" height="31" as="geometry">
            <mxRectangle width="273" height="31" as="alternateBounds" />
          </mxGeometry>
        </mxCell>
        <mxCell id="6It09mlc2z2I1y0DJIgb-99" style="shape=tableRow;horizontal=0;startSize=0;swimlaneHead=0;swimlaneBody=0;fillColor=none;collapsible=0;dropTarget=0;points=[[0,0.5],[1,0.5]];portConstraint=eastwest;top=0;left=0;right=0;bottom=0;swimlaneLine=1;" parent="6It09mlc2z2I1y0DJIgb-86" vertex="1">
          <mxGeometry y="150" width="303" height="30" as="geometry" />
        </mxCell>
        <mxCell id="6It09mlc2z2I1y0DJIgb-100" value="*" style="shape=partialRectangle;connectable=0;fillColor=none;top=0;left=0;bottom=0;right=0;editable=1;overflow=hidden;whiteSpace=wrap;html=1;swimlaneLine=1;" parent="6It09mlc2z2I1y0DJIgb-99" vertex="1">
          <mxGeometry width="30" height="30" as="geometry">
            <mxRectangle width="30" height="30" as="alternateBounds" />
          </mxGeometry>
        </mxCell>
        <mxCell id="6It09mlc2z2I1y0DJIgb-101" value="horario_atendimento_duracao_slot_minutos: int" style="shape=partialRectangle;connectable=0;fillColor=none;top=0;left=0;bottom=0;right=0;align=left;spacingLeft=6;overflow=hidden;whiteSpace=wrap;html=1;fontStyle=0;swimlaneLine=1;" parent="6It09mlc2z2I1y0DJIgb-99" vertex="1">
          <mxGeometry x="30" width="273" height="30" as="geometry">
            <mxRectangle width="273" height="30" as="alternateBounds" />
          </mxGeometry>
        </mxCell>
        <mxCell id="6It09mlc2z2I1y0DJIgb-153" style="shape=tableRow;horizontal=0;startSize=0;swimlaneHead=0;swimlaneBody=0;fillColor=none;collapsible=0;dropTarget=0;points=[[0,0.5],[1,0.5]];portConstraint=eastwest;top=0;left=0;right=0;bottom=0;swimlaneLine=1;" parent="6It09mlc2z2I1y0DJIgb-86" vertex="1">
          <mxGeometry y="180" width="303" height="30" as="geometry" />
        </mxCell>
        <mxCell id="6It09mlc2z2I1y0DJIgb-154" value="*FK" style="shape=partialRectangle;connectable=0;fillColor=none;top=0;left=0;bottom=0;right=0;editable=1;overflow=hidden;whiteSpace=wrap;html=1;swimlaneLine=1;" parent="6It09mlc2z2I1y0DJIgb-153" vertex="1">
          <mxGeometry width="30" height="30" as="geometry">
            <mxRectangle width="30" height="30" as="alternateBounds" />
          </mxGeometry>
        </mxCell>
        <mxCell id="6It09mlc2z2I1y0DJIgb-155" value="polo_atendimento_id: int" style="shape=partialRectangle;connectable=0;fillColor=none;top=0;left=0;bottom=0;right=0;align=left;spacingLeft=6;overflow=hidden;whiteSpace=wrap;html=1;fontStyle=0;swimlaneLine=1;" parent="6It09mlc2z2I1y0DJIgb-153" vertex="1">
          <mxGeometry x="30" width="273" height="30" as="geometry">
            <mxRectangle width="273" height="30" as="alternateBounds" />
          </mxGeometry>
        </mxCell>
        <mxCell id="EEHmMVJqZzsaK7D_wYMv-1002" style="shape=tableRow;horizontal=0;startSize=0;swimlaneHead=0;swimlaneBody=0;fillColor=none;collapsible=0;dropTarget=0;points=[[0,0.5],[1,0.5]];portConstraint=eastwest;top=0;left=0;right=0;bottom=0;swimlaneLine=1;" vertex="1" parent="6It09mlc2z2I1y0DJIgb-86">
          <mxGeometry y="210" width="303" height="30" as="geometry" />
        </mxCell>
        <mxCell id="EEHmMVJqZzsaK7D_wYMv-1003" value="*" style="shape=partialRectangle;connectable=0;fillColor=none;top=0;left=0;bottom=0;right=0;editable=1;overflow=hidden;whiteSpace=wrap;html=1;swimlaneLine=1;" vertex="1" parent="EEHmMVJqZzsaK7D_wYMv-1002">
          <mxGeometry width="30" height="30" as="geometry">
            <mxRectangle width="30" height="30" as="alternateBounds" />
          </mxGeometry>
        </mxCell>
        <mxCell id="EEHmMVJqZzsaK7D_wYMv-1004" value="row_creation_time: timestamp" style="shape=partialRectangle;connectable=0;fillColor=none;top=0;left=0;bottom=0;right=0;align=left;spacingLeft=6;overflow=hidden;whiteSpace=wrap;html=1;fontStyle=0;swimlaneLine=1;" vertex="1" parent="EEHmMVJqZzsaK7D_wYMv-1002">
          <mxGeometry x="30" width="273" height="30" as="geometry">
            <mxRectangle width="273" height="30" as="alternateBounds" />
          </mxGeometry>
        </mxCell>
        <mxCell id="EEHmMVJqZzsaK7D_wYMv-1005" style="shape=tableRow;horizontal=0;startSize=0;swimlaneHead=0;swimlaneBody=0;fillColor=none;collapsible=0;dropTarget=0;points=[[0,0.5],[1,0.5]];portConstraint=eastwest;top=0;left=0;right=0;bottom=0;swimlaneLine=1;" vertex="1" parent="6It09mlc2z2I1y0DJIgb-86">
          <mxGeometry y="240" width="303" height="30" as="geometry" />
        </mxCell>
        <mxCell id="EEHmMVJqZzsaK7D_wYMv-1006" value="*" style="shape=partialRectangle;connectable=0;fillColor=none;top=0;left=0;bottom=0;right=0;editable=1;overflow=hidden;whiteSpace=wrap;html=1;swimlaneLine=1;" vertex="1" parent="EEHmMVJqZzsaK7D_wYMv-1005">
          <mxGeometry width="30" height="30" as="geometry">
            <mxRectangle width="30" height="30" as="alternateBounds" />
          </mxGeometry>
        </mxCell>
        <mxCell id="EEHmMVJqZzsaK7D_wYMv-1007" value="row_update_time: timestamp" style="shape=partialRectangle;connectable=0;fillColor=none;top=0;left=0;bottom=0;right=0;align=left;spacingLeft=6;overflow=hidden;whiteSpace=wrap;html=1;fontStyle=0;swimlaneLine=1;" vertex="1" parent="EEHmMVJqZzsaK7D_wYMv-1005">
          <mxGeometry x="30" width="273" height="30" as="geometry">
            <mxRectangle width="273" height="30" as="alternateBounds" />
          </mxGeometry>
        </mxCell>
        <mxCell id="EEHmMVJqZzsaK7D_wYMv-1008" style="shape=tableRow;horizontal=0;startSize=0;swimlaneHead=0;swimlaneBody=0;fillColor=none;collapsible=0;dropTarget=0;points=[[0,0.5],[1,0.5]];portConstraint=eastwest;top=0;left=0;right=0;bottom=0;swimlaneLine=1;" vertex="1" parent="6It09mlc2z2I1y0DJIgb-86">
          <mxGeometry y="270" width="303" height="30" as="geometry" />
        </mxCell>
        <mxCell id="EEHmMVJqZzsaK7D_wYMv-1009" value="*" style="shape=partialRectangle;connectable=0;fillColor=none;top=0;left=0;bottom=0;right=0;editable=1;overflow=hidden;whiteSpace=wrap;html=1;swimlaneLine=1;" vertex="1" parent="EEHmMVJqZzsaK7D_wYMv-1008">
          <mxGeometry width="30" height="30" as="geometry">
            <mxRectangle width="30" height="30" as="alternateBounds" />
          </mxGeometry>
        </mxCell>
        <mxCell id="EEHmMVJqZzsaK7D_wYMv-1010" value="row_creation_user: varchar(30)" style="shape=partialRectangle;connectable=0;fillColor=none;top=0;left=0;bottom=0;right=0;align=left;spacingLeft=6;overflow=hidden;whiteSpace=wrap;html=1;fontStyle=0;swimlaneLine=1;" vertex="1" parent="EEHmMVJqZzsaK7D_wYMv-1008">
          <mxGeometry x="30" width="273" height="30" as="geometry">
            <mxRectangle width="273" height="30" as="alternateBounds" />
          </mxGeometry>
        </mxCell>
        <mxCell id="EEHmMVJqZzsaK7D_wYMv-1011" style="shape=tableRow;horizontal=0;startSize=0;swimlaneHead=0;swimlaneBody=0;fillColor=none;collapsible=0;dropTarget=0;points=[[0,0.5],[1,0.5]];portConstraint=eastwest;top=0;left=0;right=0;bottom=0;swimlaneLine=1;" vertex="1" parent="6It09mlc2z2I1y0DJIgb-86">
          <mxGeometry y="300" width="303" height="30" as="geometry" />
        </mxCell>
        <mxCell id="EEHmMVJqZzsaK7D_wYMv-1012" value="*" style="shape=partialRectangle;connectable=0;fillColor=none;top=0;left=0;bottom=0;right=0;editable=1;overflow=hidden;whiteSpace=wrap;html=1;swimlaneLine=1;" vertex="1" parent="EEHmMVJqZzsaK7D_wYMv-1011">
          <mxGeometry width="30" height="30" as="geometry">
            <mxRectangle width="30" height="30" as="alternateBounds" />
          </mxGeometry>
        </mxCell>
        <mxCell id="EEHmMVJqZzsaK7D_wYMv-1013" value="row_update_user: varchar(30)" style="shape=partialRectangle;connectable=0;fillColor=none;top=0;left=0;bottom=0;right=0;align=left;spacingLeft=6;overflow=hidden;whiteSpace=wrap;html=1;fontStyle=0;swimlaneLine=1;" vertex="1" parent="EEHmMVJqZzsaK7D_wYMv-1011">
          <mxGeometry x="30" width="273" height="30" as="geometry">
            <mxRectangle width="273" height="30" as="alternateBounds" />
          </mxGeometry>
        </mxCell>
        <mxCell id="EEHmMVJqZzsaK7D_wYMv-1014" style="shape=tableRow;horizontal=0;startSize=0;swimlaneHead=0;swimlaneBody=0;fillColor=none;collapsible=0;dropTarget=0;points=[[0,0.5],[1,0.5]];portConstraint=eastwest;top=0;left=0;right=0;bottom=0;swimlaneLine=1;" vertex="1" parent="6It09mlc2z2I1y0DJIgb-86">
          <mxGeometry y="330" width="303" height="30" as="geometry" />
        </mxCell>
        <mxCell id="EEHmMVJqZzsaK7D_wYMv-1015" value="*" style="shape=partialRectangle;connectable=0;fillColor=none;top=0;left=0;bottom=0;right=0;editable=1;overflow=hidden;whiteSpace=wrap;html=1;swimlaneLine=1;" vertex="1" parent="EEHmMVJqZzsaK7D_wYMv-1014">
          <mxGeometry width="30" height="30" as="geometry">
            <mxRectangle width="30" height="30" as="alternateBounds" />
          </mxGeometry>
        </mxCell>
        <mxCell id="EEHmMVJqZzsaK7D_wYMv-1016" value="row_is_deleted: bool" style="shape=partialRectangle;connectable=0;fillColor=none;top=0;left=0;bottom=0;right=0;align=left;spacingLeft=6;overflow=hidden;whiteSpace=wrap;html=1;fontStyle=0;swimlaneLine=1;" vertex="1" parent="EEHmMVJqZzsaK7D_wYMv-1014">
          <mxGeometry x="30" width="273" height="30" as="geometry">
            <mxRectangle width="273" height="30" as="alternateBounds" />
          </mxGeometry>
        </mxCell>
        <mxCell id="6It09mlc2z2I1y0DJIgb-114" value="Período_Exceção" style="shape=table;startSize=30;container=1;collapsible=1;childLayout=tableLayout;fixedRows=1;rowLines=0;fontStyle=1;align=center;resizeLast=1;html=1;swimlaneLine=1;" parent="WIyWlLk6GJQsqaUBKTNV-1" vertex="1">
          <mxGeometry x="850" y="930" width="313" height="331" as="geometry" />
        </mxCell>
        <mxCell id="6It09mlc2z2I1y0DJIgb-115" value="" style="shape=tableRow;horizontal=0;startSize=0;swimlaneHead=0;swimlaneBody=0;fillColor=none;collapsible=0;dropTarget=0;points=[[0,0.5],[1,0.5]];portConstraint=eastwest;top=0;left=0;right=0;bottom=1;swimlaneLine=1;" parent="6It09mlc2z2I1y0DJIgb-114" vertex="1">
          <mxGeometry y="30" width="313" height="29" as="geometry" />
        </mxCell>
        <mxCell id="6It09mlc2z2I1y0DJIgb-116" value="PK" style="shape=partialRectangle;connectable=0;fillColor=none;top=0;left=0;bottom=0;right=0;fontStyle=1;overflow=hidden;whiteSpace=wrap;html=1;swimlaneLine=1;" parent="6It09mlc2z2I1y0DJIgb-115" vertex="1">
          <mxGeometry width="30" height="29" as="geometry">
            <mxRectangle width="30" height="29" as="alternateBounds" />
          </mxGeometry>
        </mxCell>
        <mxCell id="6It09mlc2z2I1y0DJIgb-117" value="período_exceç&lt;span style=&quot;background-color: transparent; color: light-dark(rgb(0, 0, 0), rgb(255, 255, 255));&quot;&gt;ão_id: int&lt;/span&gt;" style="shape=partialRectangle;connectable=0;fillColor=none;top=0;left=0;bottom=0;right=0;align=left;spacingLeft=6;fontStyle=5;overflow=hidden;whiteSpace=wrap;html=1;swimlaneLine=1;" parent="6It09mlc2z2I1y0DJIgb-115" vertex="1">
          <mxGeometry x="30" width="283" height="29" as="geometry">
            <mxRectangle width="283" height="29" as="alternateBounds" />
          </mxGeometry>
        </mxCell>
        <mxCell id="6It09mlc2z2I1y0DJIgb-118" value="" style="shape=tableRow;horizontal=0;startSize=0;swimlaneHead=0;swimlaneBody=0;fillColor=none;collapsible=0;dropTarget=0;points=[[0,0.5],[1,0.5]];portConstraint=eastwest;top=0;left=0;right=0;bottom=0;swimlaneLine=1;" parent="6It09mlc2z2I1y0DJIgb-114" vertex="1">
          <mxGeometry y="59" width="313" height="30" as="geometry" />
        </mxCell>
        <mxCell id="6It09mlc2z2I1y0DJIgb-119" value="*" style="shape=partialRectangle;connectable=0;fillColor=none;top=0;left=0;bottom=0;right=0;editable=1;overflow=hidden;whiteSpace=wrap;html=1;swimlaneLine=1;" parent="6It09mlc2z2I1y0DJIgb-118" vertex="1">
          <mxGeometry width="30" height="30" as="geometry">
            <mxRectangle width="30" height="30" as="alternateBounds" />
          </mxGeometry>
        </mxCell>
        <mxCell id="6It09mlc2z2I1y0DJIgb-120" value="periodo_excecao_data_hora_inicio: timestamp" style="shape=partialRectangle;connectable=0;fillColor=none;top=0;left=0;bottom=0;right=0;align=left;spacingLeft=6;overflow=hidden;whiteSpace=wrap;html=1;fontStyle=0;swimlaneLine=1;" parent="6It09mlc2z2I1y0DJIgb-118" vertex="1">
          <mxGeometry x="30" width="283" height="30" as="geometry">
            <mxRectangle width="283" height="30" as="alternateBounds" />
          </mxGeometry>
        </mxCell>
        <mxCell id="6It09mlc2z2I1y0DJIgb-121" style="shape=tableRow;horizontal=0;startSize=0;swimlaneHead=0;swimlaneBody=0;fillColor=none;collapsible=0;dropTarget=0;points=[[0,0.5],[1,0.5]];portConstraint=eastwest;top=0;left=0;right=0;bottom=0;swimlaneLine=1;" parent="6It09mlc2z2I1y0DJIgb-114" vertex="1">
          <mxGeometry y="89" width="313" height="31" as="geometry" />
        </mxCell>
        <mxCell id="6It09mlc2z2I1y0DJIgb-122" value="*" style="shape=partialRectangle;connectable=0;fillColor=none;top=0;left=0;bottom=0;right=0;editable=1;overflow=hidden;whiteSpace=wrap;html=1;swimlaneLine=1;" parent="6It09mlc2z2I1y0DJIgb-121" vertex="1">
          <mxGeometry width="30" height="31" as="geometry">
            <mxRectangle width="30" height="31" as="alternateBounds" />
          </mxGeometry>
        </mxCell>
        <mxCell id="6It09mlc2z2I1y0DJIgb-123" value="periodo_excecao_data_hora_fim: timestamp" style="shape=partialRectangle;connectable=0;fillColor=none;top=0;left=0;bottom=0;right=0;align=left;spacingLeft=6;overflow=hidden;whiteSpace=wrap;html=1;fontStyle=0;swimlaneLine=1;" parent="6It09mlc2z2I1y0DJIgb-121" vertex="1">
          <mxGeometry x="30" width="283" height="31" as="geometry">
            <mxRectangle width="283" height="31" as="alternateBounds" />
          </mxGeometry>
        </mxCell>
        <mxCell id="6It09mlc2z2I1y0DJIgb-124" style="shape=tableRow;horizontal=0;startSize=0;swimlaneHead=0;swimlaneBody=0;fillColor=none;collapsible=0;dropTarget=0;points=[[0,0.5],[1,0.5]];portConstraint=eastwest;top=0;left=0;right=0;bottom=0;swimlaneLine=1;" parent="6It09mlc2z2I1y0DJIgb-114" vertex="1">
          <mxGeometry y="120" width="313" height="31" as="geometry" />
        </mxCell>
        <mxCell id="6It09mlc2z2I1y0DJIgb-125" value="" style="shape=partialRectangle;connectable=0;fillColor=none;top=0;left=0;bottom=0;right=0;editable=1;overflow=hidden;whiteSpace=wrap;html=1;swimlaneLine=1;" parent="6It09mlc2z2I1y0DJIgb-124" vertex="1">
          <mxGeometry width="30" height="31" as="geometry">
            <mxRectangle width="30" height="31" as="alternateBounds" />
          </mxGeometry>
        </mxCell>
        <mxCell id="6It09mlc2z2I1y0DJIgb-126" value="periodo_excecao_descricao: varchar(256)" style="shape=partialRectangle;connectable=0;fillColor=none;top=0;left=0;bottom=0;right=0;align=left;spacingLeft=6;overflow=hidden;whiteSpace=wrap;html=1;fontStyle=0;swimlaneLine=1;" parent="6It09mlc2z2I1y0DJIgb-124" vertex="1">
          <mxGeometry x="30" width="283" height="31" as="geometry">
            <mxRectangle width="283" height="31" as="alternateBounds" />
          </mxGeometry>
        </mxCell>
        <mxCell id="6It09mlc2z2I1y0DJIgb-127" style="shape=tableRow;horizontal=0;startSize=0;swimlaneHead=0;swimlaneBody=0;fillColor=none;collapsible=0;dropTarget=0;points=[[0,0.5],[1,0.5]];portConstraint=eastwest;top=0;left=0;right=0;bottom=0;swimlaneLine=1;" parent="6It09mlc2z2I1y0DJIgb-114" vertex="1">
          <mxGeometry y="151" width="313" height="30" as="geometry" />
        </mxCell>
        <mxCell id="6It09mlc2z2I1y0DJIgb-128" value="*FK" style="shape=partialRectangle;connectable=0;fillColor=none;top=0;left=0;bottom=0;right=0;editable=1;overflow=hidden;whiteSpace=wrap;html=1;swimlaneLine=1;" parent="6It09mlc2z2I1y0DJIgb-127" vertex="1">
          <mxGeometry width="30" height="30" as="geometry">
            <mxRectangle width="30" height="30" as="alternateBounds" />
          </mxGeometry>
        </mxCell>
        <mxCell id="6It09mlc2z2I1y0DJIgb-129" value="polo_atendimento_id: int" style="shape=partialRectangle;connectable=0;fillColor=none;top=0;left=0;bottom=0;right=0;align=left;spacingLeft=6;overflow=hidden;whiteSpace=wrap;html=1;fontStyle=0;swimlaneLine=1;" parent="6It09mlc2z2I1y0DJIgb-127" vertex="1">
          <mxGeometry x="30" width="283" height="30" as="geometry">
            <mxRectangle width="283" height="30" as="alternateBounds" />
          </mxGeometry>
        </mxCell>
        <mxCell id="EEHmMVJqZzsaK7D_wYMv-1017" style="shape=tableRow;horizontal=0;startSize=0;swimlaneHead=0;swimlaneBody=0;fillColor=none;collapsible=0;dropTarget=0;points=[[0,0.5],[1,0.5]];portConstraint=eastwest;top=0;left=0;right=0;bottom=0;swimlaneLine=1;" vertex="1" parent="6It09mlc2z2I1y0DJIgb-114">
          <mxGeometry y="181" width="313" height="30" as="geometry" />
        </mxCell>
        <mxCell id="EEHmMVJqZzsaK7D_wYMv-1018" value="*" style="shape=partialRectangle;connectable=0;fillColor=none;top=0;left=0;bottom=0;right=0;editable=1;overflow=hidden;whiteSpace=wrap;html=1;swimlaneLine=1;" vertex="1" parent="EEHmMVJqZzsaK7D_wYMv-1017">
          <mxGeometry width="30" height="30" as="geometry">
            <mxRectangle width="30" height="30" as="alternateBounds" />
          </mxGeometry>
        </mxCell>
        <mxCell id="EEHmMVJqZzsaK7D_wYMv-1019" value="row_creation_time: timestamp" style="shape=partialRectangle;connectable=0;fillColor=none;top=0;left=0;bottom=0;right=0;align=left;spacingLeft=6;overflow=hidden;whiteSpace=wrap;html=1;fontStyle=0;swimlaneLine=1;" vertex="1" parent="EEHmMVJqZzsaK7D_wYMv-1017">
          <mxGeometry x="30" width="283" height="30" as="geometry">
            <mxRectangle width="283" height="30" as="alternateBounds" />
          </mxGeometry>
        </mxCell>
        <mxCell id="EEHmMVJqZzsaK7D_wYMv-1020" style="shape=tableRow;horizontal=0;startSize=0;swimlaneHead=0;swimlaneBody=0;fillColor=none;collapsible=0;dropTarget=0;points=[[0,0.5],[1,0.5]];portConstraint=eastwest;top=0;left=0;right=0;bottom=0;swimlaneLine=1;" vertex="1" parent="6It09mlc2z2I1y0DJIgb-114">
          <mxGeometry y="211" width="313" height="30" as="geometry" />
        </mxCell>
        <mxCell id="EEHmMVJqZzsaK7D_wYMv-1021" value="*" style="shape=partialRectangle;connectable=0;fillColor=none;top=0;left=0;bottom=0;right=0;editable=1;overflow=hidden;whiteSpace=wrap;html=1;swimlaneLine=1;" vertex="1" parent="EEHmMVJqZzsaK7D_wYMv-1020">
          <mxGeometry width="30" height="30" as="geometry">
            <mxRectangle width="30" height="30" as="alternateBounds" />
          </mxGeometry>
        </mxCell>
        <mxCell id="EEHmMVJqZzsaK7D_wYMv-1022" value="row_update_time: timestamp" style="shape=partialRectangle;connectable=0;fillColor=none;top=0;left=0;bottom=0;right=0;align=left;spacingLeft=6;overflow=hidden;whiteSpace=wrap;html=1;fontStyle=0;swimlaneLine=1;" vertex="1" parent="EEHmMVJqZzsaK7D_wYMv-1020">
          <mxGeometry x="30" width="283" height="30" as="geometry">
            <mxRectangle width="283" height="30" as="alternateBounds" />
          </mxGeometry>
        </mxCell>
        <mxCell id="EEHmMVJqZzsaK7D_wYMv-1023" style="shape=tableRow;horizontal=0;startSize=0;swimlaneHead=0;swimlaneBody=0;fillColor=none;collapsible=0;dropTarget=0;points=[[0,0.5],[1,0.5]];portConstraint=eastwest;top=0;left=0;right=0;bottom=0;swimlaneLine=1;" vertex="1" parent="6It09mlc2z2I1y0DJIgb-114">
          <mxGeometry y="241" width="313" height="30" as="geometry" />
        </mxCell>
        <mxCell id="EEHmMVJqZzsaK7D_wYMv-1024" value="*" style="shape=partialRectangle;connectable=0;fillColor=none;top=0;left=0;bottom=0;right=0;editable=1;overflow=hidden;whiteSpace=wrap;html=1;swimlaneLine=1;" vertex="1" parent="EEHmMVJqZzsaK7D_wYMv-1023">
          <mxGeometry width="30" height="30" as="geometry">
            <mxRectangle width="30" height="30" as="alternateBounds" />
          </mxGeometry>
        </mxCell>
        <mxCell id="EEHmMVJqZzsaK7D_wYMv-1025" value="row_creation_user: varchar(30)" style="shape=partialRectangle;connectable=0;fillColor=none;top=0;left=0;bottom=0;right=0;align=left;spacingLeft=6;overflow=hidden;whiteSpace=wrap;html=1;fontStyle=0;swimlaneLine=1;" vertex="1" parent="EEHmMVJqZzsaK7D_wYMv-1023">
          <mxGeometry x="30" width="283" height="30" as="geometry">
            <mxRectangle width="283" height="30" as="alternateBounds" />
          </mxGeometry>
        </mxCell>
        <mxCell id="EEHmMVJqZzsaK7D_wYMv-1026" style="shape=tableRow;horizontal=0;startSize=0;swimlaneHead=0;swimlaneBody=0;fillColor=none;collapsible=0;dropTarget=0;points=[[0,0.5],[1,0.5]];portConstraint=eastwest;top=0;left=0;right=0;bottom=0;swimlaneLine=1;" vertex="1" parent="6It09mlc2z2I1y0DJIgb-114">
          <mxGeometry y="271" width="313" height="30" as="geometry" />
        </mxCell>
        <mxCell id="EEHmMVJqZzsaK7D_wYMv-1027" value="*" style="shape=partialRectangle;connectable=0;fillColor=none;top=0;left=0;bottom=0;right=0;editable=1;overflow=hidden;whiteSpace=wrap;html=1;swimlaneLine=1;" vertex="1" parent="EEHmMVJqZzsaK7D_wYMv-1026">
          <mxGeometry width="30" height="30" as="geometry">
            <mxRectangle width="30" height="30" as="alternateBounds" />
          </mxGeometry>
        </mxCell>
        <mxCell id="EEHmMVJqZzsaK7D_wYMv-1028" value="row_update_user: varchar(30)" style="shape=partialRectangle;connectable=0;fillColor=none;top=0;left=0;bottom=0;right=0;align=left;spacingLeft=6;overflow=hidden;whiteSpace=wrap;html=1;fontStyle=0;swimlaneLine=1;" vertex="1" parent="EEHmMVJqZzsaK7D_wYMv-1026">
          <mxGeometry x="30" width="283" height="30" as="geometry">
            <mxRectangle width="283" height="30" as="alternateBounds" />
          </mxGeometry>
        </mxCell>
        <mxCell id="EEHmMVJqZzsaK7D_wYMv-1029" style="shape=tableRow;horizontal=0;startSize=0;swimlaneHead=0;swimlaneBody=0;fillColor=none;collapsible=0;dropTarget=0;points=[[0,0.5],[1,0.5]];portConstraint=eastwest;top=0;left=0;right=0;bottom=0;swimlaneLine=1;" vertex="1" parent="6It09mlc2z2I1y0DJIgb-114">
          <mxGeometry y="301" width="313" height="30" as="geometry" />
        </mxCell>
        <mxCell id="EEHmMVJqZzsaK7D_wYMv-1030" value="*" style="shape=partialRectangle;connectable=0;fillColor=none;top=0;left=0;bottom=0;right=0;editable=1;overflow=hidden;whiteSpace=wrap;html=1;swimlaneLine=1;" vertex="1" parent="EEHmMVJqZzsaK7D_wYMv-1029">
          <mxGeometry width="30" height="30" as="geometry">
            <mxRectangle width="30" height="30" as="alternateBounds" />
          </mxGeometry>
        </mxCell>
        <mxCell id="EEHmMVJqZzsaK7D_wYMv-1031" value="row_is_deleted: bool" style="shape=partialRectangle;connectable=0;fillColor=none;top=0;left=0;bottom=0;right=0;align=left;spacingLeft=6;overflow=hidden;whiteSpace=wrap;html=1;fontStyle=0;swimlaneLine=1;" vertex="1" parent="EEHmMVJqZzsaK7D_wYMv-1029">
          <mxGeometry x="30" width="283" height="30" as="geometry">
            <mxRectangle width="283" height="30" as="alternateBounds" />
          </mxGeometry>
        </mxCell>
        <mxCell id="6It09mlc2z2I1y0DJIgb-130" style="edgeStyle=orthogonalEdgeStyle;rounded=0;orthogonalLoop=1;jettySize=auto;html=1;exitX=1;exitY=0.5;exitDx=0;exitDy=0;entryX=1;entryY=0.5;entryDx=0;entryDy=0;swimlaneLine=1;" parent="WIyWlLk6GJQsqaUBKTNV-1" source="FOksgfGxdBfBZHIW1R6P-35" target="6It09mlc2z2I1y0DJIgb-127" edge="1">
          <mxGeometry relative="1" as="geometry">
            <Array as="points">
              <mxPoint x="1180" y="-286" />
              <mxPoint x="1180" y="1095" />
            </Array>
          </mxGeometry>
        </mxCell>
        <mxCell id="6It09mlc2z2I1y0DJIgb-131" value="Agendamento" style="shape=table;startSize=30;container=1;collapsible=1;childLayout=tableLayout;fixedRows=1;rowLines=0;fontStyle=1;align=center;resizeLast=1;html=1;swimlaneLine=1;" parent="WIyWlLk6GJQsqaUBKTNV-1" vertex="1">
          <mxGeometry x="80" y="570" width="283" height="360" as="geometry" />
        </mxCell>
        <mxCell id="6It09mlc2z2I1y0DJIgb-132" value="" style="shape=tableRow;horizontal=0;startSize=0;swimlaneHead=0;swimlaneBody=0;fillColor=none;collapsible=0;dropTarget=0;points=[[0,0.5],[1,0.5]];portConstraint=eastwest;top=0;left=0;right=0;bottom=1;swimlaneLine=1;" parent="6It09mlc2z2I1y0DJIgb-131" vertex="1">
          <mxGeometry y="30" width="283" height="29" as="geometry" />
        </mxCell>
        <mxCell id="6It09mlc2z2I1y0DJIgb-133" value="PK" style="shape=partialRectangle;connectable=0;fillColor=none;top=0;left=0;bottom=0;right=0;fontStyle=1;overflow=hidden;whiteSpace=wrap;html=1;swimlaneLine=1;" parent="6It09mlc2z2I1y0DJIgb-132" vertex="1">
          <mxGeometry width="30" height="29" as="geometry">
            <mxRectangle width="30" height="29" as="alternateBounds" />
          </mxGeometry>
        </mxCell>
        <mxCell id="6It09mlc2z2I1y0DJIgb-134" value="agendamento_id: int" style="shape=partialRectangle;connectable=0;fillColor=none;top=0;left=0;bottom=0;right=0;align=left;spacingLeft=6;fontStyle=5;overflow=hidden;whiteSpace=wrap;html=1;swimlaneLine=1;" parent="6It09mlc2z2I1y0DJIgb-132" vertex="1">
          <mxGeometry x="30" width="253" height="29" as="geometry">
            <mxRectangle width="253" height="29" as="alternateBounds" />
          </mxGeometry>
        </mxCell>
        <mxCell id="6It09mlc2z2I1y0DJIgb-135" value="" style="shape=tableRow;horizontal=0;startSize=0;swimlaneHead=0;swimlaneBody=0;fillColor=none;collapsible=0;dropTarget=0;points=[[0,0.5],[1,0.5]];portConstraint=eastwest;top=0;left=0;right=0;bottom=0;swimlaneLine=1;" parent="6It09mlc2z2I1y0DJIgb-131" vertex="1">
          <mxGeometry y="59" width="283" height="30" as="geometry" />
        </mxCell>
        <mxCell id="6It09mlc2z2I1y0DJIgb-136" value="*" style="shape=partialRectangle;connectable=0;fillColor=none;top=0;left=0;bottom=0;right=0;editable=1;overflow=hidden;whiteSpace=wrap;html=1;swimlaneLine=1;" parent="6It09mlc2z2I1y0DJIgb-135" vertex="1">
          <mxGeometry width="30" height="30" as="geometry">
            <mxRectangle width="30" height="30" as="alternateBounds" />
          </mxGeometry>
        </mxCell>
        <mxCell id="6It09mlc2z2I1y0DJIgb-137" value="agendamento_data_hora: timestamp" style="shape=partialRectangle;connectable=0;fillColor=none;top=0;left=0;bottom=0;right=0;align=left;spacingLeft=6;overflow=hidden;whiteSpace=wrap;html=1;fontStyle=0;swimlaneLine=1;" parent="6It09mlc2z2I1y0DJIgb-135" vertex="1">
          <mxGeometry x="30" width="253" height="30" as="geometry">
            <mxRectangle width="253" height="30" as="alternateBounds" />
          </mxGeometry>
        </mxCell>
        <mxCell id="6It09mlc2z2I1y0DJIgb-138" style="shape=tableRow;horizontal=0;startSize=0;swimlaneHead=0;swimlaneBody=0;fillColor=none;collapsible=0;dropTarget=0;points=[[0,0.5],[1,0.5]];portConstraint=eastwest;top=0;left=0;right=0;bottom=0;swimlaneLine=1;" parent="6It09mlc2z2I1y0DJIgb-131" vertex="1">
          <mxGeometry y="89" width="283" height="30" as="geometry" />
        </mxCell>
        <mxCell id="6It09mlc2z2I1y0DJIgb-139" value="FK*" style="shape=partialRectangle;connectable=0;fillColor=none;top=0;left=0;bottom=0;right=0;editable=1;overflow=hidden;whiteSpace=wrap;html=1;swimlaneLine=1;" parent="6It09mlc2z2I1y0DJIgb-138" vertex="1">
          <mxGeometry width="30" height="30" as="geometry">
            <mxRectangle width="30" height="30" as="alternateBounds" />
          </mxGeometry>
        </mxCell>
        <mxCell id="6It09mlc2z2I1y0DJIgb-140" value="cidadao_id: int" style="shape=partialRectangle;connectable=0;fillColor=none;top=0;left=0;bottom=0;right=0;align=left;spacingLeft=6;overflow=hidden;whiteSpace=wrap;html=1;fontStyle=0;swimlaneLine=1;" parent="6It09mlc2z2I1y0DJIgb-138" vertex="1">
          <mxGeometry x="30" width="253" height="30" as="geometry">
            <mxRectangle width="253" height="30" as="alternateBounds" />
          </mxGeometry>
        </mxCell>
        <mxCell id="6It09mlc2z2I1y0DJIgb-141" style="shape=tableRow;horizontal=0;startSize=0;swimlaneHead=0;swimlaneBody=0;fillColor=none;collapsible=0;dropTarget=0;points=[[0,0.5],[1,0.5]];portConstraint=eastwest;top=0;left=0;right=0;bottom=0;swimlaneLine=1;" parent="6It09mlc2z2I1y0DJIgb-131" vertex="1">
          <mxGeometry y="119" width="283" height="31" as="geometry" />
        </mxCell>
        <mxCell id="6It09mlc2z2I1y0DJIgb-142" value="FK*" style="shape=partialRectangle;connectable=0;fillColor=none;top=0;left=0;bottom=0;right=0;editable=1;overflow=hidden;whiteSpace=wrap;html=1;swimlaneLine=1;" parent="6It09mlc2z2I1y0DJIgb-141" vertex="1">
          <mxGeometry width="30" height="31" as="geometry">
            <mxRectangle width="30" height="31" as="alternateBounds" />
          </mxGeometry>
        </mxCell>
        <mxCell id="6It09mlc2z2I1y0DJIgb-143" value="serviço_id: int" style="shape=partialRectangle;connectable=0;fillColor=none;top=0;left=0;bottom=0;right=0;align=left;spacingLeft=6;overflow=hidden;whiteSpace=wrap;html=1;fontStyle=0;swimlaneLine=1;" parent="6It09mlc2z2I1y0DJIgb-141" vertex="1">
          <mxGeometry x="30" width="253" height="31" as="geometry">
            <mxRectangle width="253" height="31" as="alternateBounds" />
          </mxGeometry>
        </mxCell>
        <mxCell id="6It09mlc2z2I1y0DJIgb-144" style="shape=tableRow;horizontal=0;startSize=0;swimlaneHead=0;swimlaneBody=0;fillColor=none;collapsible=0;dropTarget=0;points=[[0,0.5],[1,0.5]];portConstraint=eastwest;top=0;left=0;right=0;bottom=0;swimlaneLine=1;" parent="6It09mlc2z2I1y0DJIgb-131" vertex="1">
          <mxGeometry y="150" width="283" height="30" as="geometry" />
        </mxCell>
        <mxCell id="6It09mlc2z2I1y0DJIgb-145" value="FK*" style="shape=partialRectangle;connectable=0;fillColor=none;top=0;left=0;bottom=0;right=0;editable=1;overflow=hidden;whiteSpace=wrap;html=1;swimlaneLine=1;" parent="6It09mlc2z2I1y0DJIgb-144" vertex="1">
          <mxGeometry width="30" height="30" as="geometry">
            <mxRectangle width="30" height="30" as="alternateBounds" />
          </mxGeometry>
        </mxCell>
        <mxCell id="6It09mlc2z2I1y0DJIgb-146" value="polo_atendimento_id: int" style="shape=partialRectangle;connectable=0;fillColor=none;top=0;left=0;bottom=0;right=0;align=left;spacingLeft=6;overflow=hidden;whiteSpace=wrap;html=1;fontStyle=0;swimlaneLine=1;" parent="6It09mlc2z2I1y0DJIgb-144" vertex="1">
          <mxGeometry x="30" width="253" height="30" as="geometry">
            <mxRectangle width="253" height="30" as="alternateBounds" />
          </mxGeometry>
        </mxCell>
        <mxCell id="6It09mlc2z2I1y0DJIgb-147" style="shape=tableRow;horizontal=0;startSize=0;swimlaneHead=0;swimlaneBody=0;fillColor=none;collapsible=0;dropTarget=0;points=[[0,0.5],[1,0.5]];portConstraint=eastwest;top=0;left=0;right=0;bottom=0;swimlaneLine=1;" parent="6It09mlc2z2I1y0DJIgb-131" vertex="1">
          <mxGeometry y="180" width="283" height="30" as="geometry" />
        </mxCell>
        <mxCell id="6It09mlc2z2I1y0DJIgb-148" value="FK*" style="shape=partialRectangle;connectable=0;fillColor=none;top=0;left=0;bottom=0;right=0;editable=1;overflow=hidden;whiteSpace=wrap;html=1;swimlaneLine=1;" parent="6It09mlc2z2I1y0DJIgb-147" vertex="1">
          <mxGeometry width="30" height="30" as="geometry">
            <mxRectangle width="30" height="30" as="alternateBounds" />
          </mxGeometry>
        </mxCell>
        <mxCell id="6It09mlc2z2I1y0DJIgb-149" value="status_agendamento_id: smallint" style="shape=partialRectangle;connectable=0;fillColor=none;top=0;left=0;bottom=0;right=0;align=left;spacingLeft=6;overflow=hidden;whiteSpace=wrap;html=1;fontStyle=0;swimlaneLine=1;" parent="6It09mlc2z2I1y0DJIgb-147" vertex="1">
          <mxGeometry x="30" width="253" height="30" as="geometry">
            <mxRectangle width="253" height="30" as="alternateBounds" />
          </mxGeometry>
        </mxCell>
        <mxCell id="EEHmMVJqZzsaK7D_wYMv-628" style="shape=tableRow;horizontal=0;startSize=0;swimlaneHead=0;swimlaneBody=0;fillColor=none;collapsible=0;dropTarget=0;points=[[0,0.5],[1,0.5]];portConstraint=eastwest;top=0;left=0;right=0;bottom=0;swimlaneLine=1;" vertex="1" parent="6It09mlc2z2I1y0DJIgb-131">
          <mxGeometry y="210" width="283" height="30" as="geometry" />
        </mxCell>
        <mxCell id="EEHmMVJqZzsaK7D_wYMv-629" value="*" style="shape=partialRectangle;connectable=0;fillColor=none;top=0;left=0;bottom=0;right=0;editable=1;overflow=hidden;whiteSpace=wrap;html=1;swimlaneLine=1;" vertex="1" parent="EEHmMVJqZzsaK7D_wYMv-628">
          <mxGeometry width="30" height="30" as="geometry">
            <mxRectangle width="30" height="30" as="alternateBounds" />
          </mxGeometry>
        </mxCell>
        <mxCell id="EEHmMVJqZzsaK7D_wYMv-630" value="row_creation_time: timestamp" style="shape=partialRectangle;connectable=0;fillColor=none;top=0;left=0;bottom=0;right=0;align=left;spacingLeft=6;overflow=hidden;whiteSpace=wrap;html=1;fontStyle=0;swimlaneLine=1;" vertex="1" parent="EEHmMVJqZzsaK7D_wYMv-628">
          <mxGeometry x="30" width="253" height="30" as="geometry">
            <mxRectangle width="253" height="30" as="alternateBounds" />
          </mxGeometry>
        </mxCell>
        <mxCell id="EEHmMVJqZzsaK7D_wYMv-631" style="shape=tableRow;horizontal=0;startSize=0;swimlaneHead=0;swimlaneBody=0;fillColor=none;collapsible=0;dropTarget=0;points=[[0,0.5],[1,0.5]];portConstraint=eastwest;top=0;left=0;right=0;bottom=0;swimlaneLine=1;" vertex="1" parent="6It09mlc2z2I1y0DJIgb-131">
          <mxGeometry y="240" width="283" height="30" as="geometry" />
        </mxCell>
        <mxCell id="EEHmMVJqZzsaK7D_wYMv-632" value="*" style="shape=partialRectangle;connectable=0;fillColor=none;top=0;left=0;bottom=0;right=0;editable=1;overflow=hidden;whiteSpace=wrap;html=1;swimlaneLine=1;" vertex="1" parent="EEHmMVJqZzsaK7D_wYMv-631">
          <mxGeometry width="30" height="30" as="geometry">
            <mxRectangle width="30" height="30" as="alternateBounds" />
          </mxGeometry>
        </mxCell>
        <mxCell id="EEHmMVJqZzsaK7D_wYMv-633" value="row_update_time: timestamp" style="shape=partialRectangle;connectable=0;fillColor=none;top=0;left=0;bottom=0;right=0;align=left;spacingLeft=6;overflow=hidden;whiteSpace=wrap;html=1;fontStyle=0;swimlaneLine=1;" vertex="1" parent="EEHmMVJqZzsaK7D_wYMv-631">
          <mxGeometry x="30" width="253" height="30" as="geometry">
            <mxRectangle width="253" height="30" as="alternateBounds" />
          </mxGeometry>
        </mxCell>
        <mxCell id="EEHmMVJqZzsaK7D_wYMv-634" style="shape=tableRow;horizontal=0;startSize=0;swimlaneHead=0;swimlaneBody=0;fillColor=none;collapsible=0;dropTarget=0;points=[[0,0.5],[1,0.5]];portConstraint=eastwest;top=0;left=0;right=0;bottom=0;swimlaneLine=1;" vertex="1" parent="6It09mlc2z2I1y0DJIgb-131">
          <mxGeometry y="270" width="283" height="30" as="geometry" />
        </mxCell>
        <mxCell id="EEHmMVJqZzsaK7D_wYMv-635" value="*" style="shape=partialRectangle;connectable=0;fillColor=none;top=0;left=0;bottom=0;right=0;editable=1;overflow=hidden;whiteSpace=wrap;html=1;swimlaneLine=1;" vertex="1" parent="EEHmMVJqZzsaK7D_wYMv-634">
          <mxGeometry width="30" height="30" as="geometry">
            <mxRectangle width="30" height="30" as="alternateBounds" />
          </mxGeometry>
        </mxCell>
        <mxCell id="EEHmMVJqZzsaK7D_wYMv-636" value="row_creation_user: varchar(30)" style="shape=partialRectangle;connectable=0;fillColor=none;top=0;left=0;bottom=0;right=0;align=left;spacingLeft=6;overflow=hidden;whiteSpace=wrap;html=1;fontStyle=0;swimlaneLine=1;" vertex="1" parent="EEHmMVJqZzsaK7D_wYMv-634">
          <mxGeometry x="30" width="253" height="30" as="geometry">
            <mxRectangle width="253" height="30" as="alternateBounds" />
          </mxGeometry>
        </mxCell>
        <mxCell id="EEHmMVJqZzsaK7D_wYMv-665" style="shape=tableRow;horizontal=0;startSize=0;swimlaneHead=0;swimlaneBody=0;fillColor=none;collapsible=0;dropTarget=0;points=[[0,0.5],[1,0.5]];portConstraint=eastwest;top=0;left=0;right=0;bottom=0;swimlaneLine=1;" vertex="1" parent="6It09mlc2z2I1y0DJIgb-131">
          <mxGeometry y="300" width="283" height="30" as="geometry" />
        </mxCell>
        <mxCell id="EEHmMVJqZzsaK7D_wYMv-666" value="*" style="shape=partialRectangle;connectable=0;fillColor=none;top=0;left=0;bottom=0;right=0;editable=1;overflow=hidden;whiteSpace=wrap;html=1;swimlaneLine=1;" vertex="1" parent="EEHmMVJqZzsaK7D_wYMv-665">
          <mxGeometry width="30" height="30" as="geometry">
            <mxRectangle width="30" height="30" as="alternateBounds" />
          </mxGeometry>
        </mxCell>
        <mxCell id="EEHmMVJqZzsaK7D_wYMv-667" value="row_update_user: varchar(30)" style="shape=partialRectangle;connectable=0;fillColor=none;top=0;left=0;bottom=0;right=0;align=left;spacingLeft=6;overflow=hidden;whiteSpace=wrap;html=1;fontStyle=0;swimlaneLine=1;" vertex="1" parent="EEHmMVJqZzsaK7D_wYMv-665">
          <mxGeometry x="30" width="253" height="30" as="geometry">
            <mxRectangle width="253" height="30" as="alternateBounds" />
          </mxGeometry>
        </mxCell>
        <mxCell id="EEHmMVJqZzsaK7D_wYMv-668" style="shape=tableRow;horizontal=0;startSize=0;swimlaneHead=0;swimlaneBody=0;fillColor=none;collapsible=0;dropTarget=0;points=[[0,0.5],[1,0.5]];portConstraint=eastwest;top=0;left=0;right=0;bottom=0;swimlaneLine=1;" vertex="1" parent="6It09mlc2z2I1y0DJIgb-131">
          <mxGeometry y="330" width="283" height="30" as="geometry" />
        </mxCell>
        <mxCell id="EEHmMVJqZzsaK7D_wYMv-669" value="*" style="shape=partialRectangle;connectable=0;fillColor=none;top=0;left=0;bottom=0;right=0;editable=1;overflow=hidden;whiteSpace=wrap;html=1;swimlaneLine=1;" vertex="1" parent="EEHmMVJqZzsaK7D_wYMv-668">
          <mxGeometry width="30" height="30" as="geometry">
            <mxRectangle width="30" height="30" as="alternateBounds" />
          </mxGeometry>
        </mxCell>
        <mxCell id="EEHmMVJqZzsaK7D_wYMv-670" value="row_is_deleted: bool" style="shape=partialRectangle;connectable=0;fillColor=none;top=0;left=0;bottom=0;right=0;align=left;spacingLeft=6;overflow=hidden;whiteSpace=wrap;html=1;fontStyle=0;swimlaneLine=1;" vertex="1" parent="EEHmMVJqZzsaK7D_wYMv-668">
          <mxGeometry x="30" width="253" height="30" as="geometry">
            <mxRectangle width="253" height="30" as="alternateBounds" />
          </mxGeometry>
        </mxCell>
        <mxCell id="6It09mlc2z2I1y0DJIgb-150" style="edgeStyle=orthogonalEdgeStyle;rounded=0;orthogonalLoop=1;jettySize=auto;html=1;exitX=0;exitY=0.5;exitDx=0;exitDy=0;entryX=0;entryY=0.5;entryDx=0;entryDy=0;swimlaneLine=1;" parent="WIyWlLk6GJQsqaUBKTNV-1" source="FOksgfGxdBfBZHIW1R6P-1" target="6It09mlc2z2I1y0DJIgb-138" edge="1">
          <mxGeometry relative="1" as="geometry" />
        </mxCell>
        <mxCell id="6It09mlc2z2I1y0DJIgb-151" style="edgeStyle=orthogonalEdgeStyle;rounded=0;orthogonalLoop=1;jettySize=auto;html=1;exitX=0;exitY=0.5;exitDx=0;exitDy=0;entryX=1;entryY=0.5;entryDx=0;entryDy=0;swimlaneLine=1;" parent="WIyWlLk6GJQsqaUBKTNV-1" source="FOksgfGxdBfBZHIW1R6P-63" target="6It09mlc2z2I1y0DJIgb-141" edge="1">
          <mxGeometry relative="1" as="geometry">
            <Array as="points">
              <mxPoint x="430" y="465" />
              <mxPoint x="430" y="705" />
            </Array>
          </mxGeometry>
        </mxCell>
        <mxCell id="6It09mlc2z2I1y0DJIgb-152" style="edgeStyle=orthogonalEdgeStyle;rounded=0;orthogonalLoop=1;jettySize=auto;html=1;exitX=1;exitY=0.5;exitDx=0;exitDy=0;entryX=1;entryY=0.5;entryDx=0;entryDy=0;swimlaneLine=1;" parent="WIyWlLk6GJQsqaUBKTNV-1" source="FOksgfGxdBfBZHIW1R6P-35" target="6It09mlc2z2I1y0DJIgb-144" edge="1">
          <mxGeometry relative="1" as="geometry">
            <Array as="points">
              <mxPoint x="1180" y="-285" />
              <mxPoint x="1180" y="1280" />
              <mxPoint x="430" y="1280" />
              <mxPoint x="430" y="735" />
            </Array>
            <mxPoint x="1163" y="-249.99999999999977" as="sourcePoint" />
            <mxPoint x="363" y="791" as="targetPoint" />
          </mxGeometry>
        </mxCell>
        <mxCell id="6It09mlc2z2I1y0DJIgb-156" style="edgeStyle=orthogonalEdgeStyle;rounded=0;orthogonalLoop=1;jettySize=auto;html=1;exitX=1;exitY=0.5;exitDx=0;exitDy=0;swimlaneLine=1;" parent="WIyWlLk6GJQsqaUBKTNV-1" source="FOksgfGxdBfBZHIW1R6P-35" target="6It09mlc2z2I1y0DJIgb-153" edge="1">
          <mxGeometry relative="1" as="geometry">
            <Array as="points">
              <mxPoint x="1180" y="-285" />
              <mxPoint x="1180" y="1280" />
              <mxPoint x="790" y="1280" />
              <mxPoint x="790" y="960" />
            </Array>
            <mxPoint x="1163" y="-180" as="sourcePoint" />
            <mxPoint x="773" y="950.5" as="targetPoint" />
          </mxGeometry>
        </mxCell>
        <mxCell id="EEHmMVJqZzsaK7D_wYMv-681" value="Status Agendamento" style="shape=table;startSize=20;container=1;collapsible=1;childLayout=tableLayout;fixedRows=1;rowLines=0;fontStyle=1;align=center;resizeLast=1;html=1;swimlaneLine=1;" vertex="1" parent="WIyWlLk6GJQsqaUBKTNV-1">
          <mxGeometry x="80" y="946" width="283" height="80" as="geometry" />
        </mxCell>
        <mxCell id="EEHmMVJqZzsaK7D_wYMv-682" value="" style="shape=tableRow;horizontal=0;startSize=0;swimlaneHead=0;swimlaneBody=0;fillColor=none;collapsible=0;dropTarget=0;points=[[0,0.5],[1,0.5]];portConstraint=eastwest;top=0;left=0;right=0;bottom=1;swimlaneLine=1;" vertex="1" parent="EEHmMVJqZzsaK7D_wYMv-681">
          <mxGeometry y="20" width="283" height="29" as="geometry" />
        </mxCell>
        <mxCell id="EEHmMVJqZzsaK7D_wYMv-683" value="PK" style="shape=partialRectangle;connectable=0;fillColor=none;top=0;left=0;bottom=0;right=0;fontStyle=1;overflow=hidden;whiteSpace=wrap;html=1;swimlaneLine=1;" vertex="1" parent="EEHmMVJqZzsaK7D_wYMv-682">
          <mxGeometry width="30" height="29" as="geometry">
            <mxRectangle width="30" height="29" as="alternateBounds" />
          </mxGeometry>
        </mxCell>
        <mxCell id="EEHmMVJqZzsaK7D_wYMv-684" value="status_agendamento_id: smallint" style="shape=partialRectangle;connectable=0;fillColor=none;top=0;left=0;bottom=0;right=0;align=left;spacingLeft=6;fontStyle=5;overflow=hidden;whiteSpace=wrap;html=1;swimlaneLine=1;" vertex="1" parent="EEHmMVJqZzsaK7D_wYMv-682">
          <mxGeometry x="30" width="253" height="29" as="geometry">
            <mxRectangle width="253" height="29" as="alternateBounds" />
          </mxGeometry>
        </mxCell>
        <mxCell id="EEHmMVJqZzsaK7D_wYMv-685" value="" style="shape=tableRow;horizontal=0;startSize=0;swimlaneHead=0;swimlaneBody=0;fillColor=none;collapsible=0;dropTarget=0;points=[[0,0.5],[1,0.5]];portConstraint=eastwest;top=0;left=0;right=0;bottom=0;swimlaneLine=1;" vertex="1" parent="EEHmMVJqZzsaK7D_wYMv-681">
          <mxGeometry y="49" width="283" height="30" as="geometry" />
        </mxCell>
        <mxCell id="EEHmMVJqZzsaK7D_wYMv-686" value="*" style="shape=partialRectangle;connectable=0;fillColor=none;top=0;left=0;bottom=0;right=0;editable=1;overflow=hidden;whiteSpace=wrap;html=1;swimlaneLine=1;" vertex="1" parent="EEHmMVJqZzsaK7D_wYMv-685">
          <mxGeometry width="30" height="30" as="geometry">
            <mxRectangle width="30" height="30" as="alternateBounds" />
          </mxGeometry>
        </mxCell>
        <mxCell id="EEHmMVJqZzsaK7D_wYMv-687" value="status_agendamento_descrição: varchar(50)" style="shape=partialRectangle;connectable=0;fillColor=none;top=0;left=0;bottom=0;right=0;align=left;spacingLeft=6;overflow=hidden;whiteSpace=wrap;html=1;fontStyle=0;swimlaneLine=1;" vertex="1" parent="EEHmMVJqZzsaK7D_wYMv-685">
          <mxGeometry x="30" width="253" height="30" as="geometry">
            <mxRectangle width="253" height="30" as="alternateBounds" />
          </mxGeometry>
        </mxCell>
        <mxCell id="EEHmMVJqZzsaK7D_wYMv-711" style="edgeStyle=orthogonalEdgeStyle;rounded=0;orthogonalLoop=1;jettySize=auto;html=1;exitX=0;exitY=0.5;exitDx=0;exitDy=0;entryX=0;entryY=0.5;entryDx=0;entryDy=0;swimlaneLine=1;" edge="1" parent="WIyWlLk6GJQsqaUBKTNV-1" source="EEHmMVJqZzsaK7D_wYMv-682" target="6It09mlc2z2I1y0DJIgb-147">
          <mxGeometry relative="1" as="geometry" />
        </mxCell>
        <mxCell id="EEHmMVJqZzsaK7D_wYMv-861" style="shape=tableRow;horizontal=0;startSize=0;swimlaneHead=0;swimlaneBody=0;fillColor=none;collapsible=0;dropTarget=0;points=[[0,0.5],[1,0.5]];portConstraint=eastwest;top=0;left=0;right=0;bottom=0;" vertex="1" parent="WIyWlLk6GJQsqaUBKTNV-1">
          <mxGeometry x="-260" y="280" width="283" height="30" as="geometry" />
        </mxCell>
        <mxCell id="EEHmMVJqZzsaK7D_wYMv-864" style="shape=tableRow;horizontal=0;startSize=0;swimlaneHead=0;swimlaneBody=0;fillColor=none;collapsible=0;dropTarget=0;points=[[0,0.5],[1,0.5]];portConstraint=eastwest;top=0;left=0;right=0;bottom=0;" vertex="1" parent="WIyWlLk6GJQsqaUBKTNV-1">
          <mxGeometry x="-260" y="310" width="283" height="30" as="geometry" />
        </mxCell>
        <mxCell id="EEHmMVJqZzsaK7D_wYMv-867" style="shape=tableRow;horizontal=0;startSize=0;swimlaneHead=0;swimlaneBody=0;fillColor=none;collapsible=0;dropTarget=0;points=[[0,0.5],[1,0.5]];portConstraint=eastwest;top=0;left=0;right=0;bottom=0;" vertex="1" parent="WIyWlLk6GJQsqaUBKTNV-1">
          <mxGeometry x="-260" y="340" width="283" height="30" as="geometry" />
        </mxCell>
        <mxCell id="EEHmMVJqZzsaK7D_wYMv-870" style="shape=tableRow;horizontal=0;startSize=0;swimlaneHead=0;swimlaneBody=0;fillColor=none;collapsible=0;dropTarget=0;points=[[0,0.5],[1,0.5]];portConstraint=eastwest;top=0;left=0;right=0;bottom=0;" vertex="1" parent="WIyWlLk6GJQsqaUBKTNV-1">
          <mxGeometry x="-260" y="370" width="283" height="30" as="geometry" />
        </mxCell>
        <mxCell id="EEHmMVJqZzsaK7D_wYMv-873" style="shape=tableRow;horizontal=0;startSize=0;swimlaneHead=0;swimlaneBody=0;fillColor=none;collapsible=0;dropTarget=0;points=[[0,0.5],[1,0.5]];portConstraint=eastwest;top=0;left=0;right=0;bottom=0;" vertex="1" parent="WIyWlLk6GJQsqaUBKTNV-1">
          <mxGeometry x="-260" y="400" width="283" height="30" as="geometry" />
        </mxCell>
        <mxCell id="EEHmMVJqZzsaK7D_wYMv-881" value="Status Sistema" style="shape=table;startSize=20;container=1;collapsible=1;childLayout=tableLayout;fixedRows=1;rowLines=0;fontStyle=1;align=center;resizeLast=1;html=1;swimlaneLine=1;" vertex="1" parent="WIyWlLk6GJQsqaUBKTNV-1">
          <mxGeometry x="880" y="830" width="283" height="80" as="geometry" />
        </mxCell>
        <mxCell id="EEHmMVJqZzsaK7D_wYMv-882" value="" style="shape=tableRow;horizontal=0;startSize=0;swimlaneHead=0;swimlaneBody=0;fillColor=none;collapsible=0;dropTarget=0;points=[[0,0.5],[1,0.5]];portConstraint=eastwest;top=0;left=0;right=0;bottom=1;swimlaneLine=1;" vertex="1" parent="EEHmMVJqZzsaK7D_wYMv-881">
          <mxGeometry y="20" width="283" height="29" as="geometry" />
        </mxCell>
        <mxCell id="EEHmMVJqZzsaK7D_wYMv-883" value="PK" style="shape=partialRectangle;connectable=0;fillColor=none;top=0;left=0;bottom=0;right=0;fontStyle=1;overflow=hidden;whiteSpace=wrap;html=1;swimlaneLine=1;" vertex="1" parent="EEHmMVJqZzsaK7D_wYMv-882">
          <mxGeometry width="30" height="29" as="geometry">
            <mxRectangle width="30" height="29" as="alternateBounds" />
          </mxGeometry>
        </mxCell>
        <mxCell id="EEHmMVJqZzsaK7D_wYMv-884" value="status_sistema_id: smallint" style="shape=partialRectangle;connectable=0;fillColor=none;top=0;left=0;bottom=0;right=0;align=left;spacingLeft=6;fontStyle=5;overflow=hidden;whiteSpace=wrap;html=1;swimlaneLine=1;" vertex="1" parent="EEHmMVJqZzsaK7D_wYMv-882">
          <mxGeometry x="30" width="253" height="29" as="geometry">
            <mxRectangle width="253" height="29" as="alternateBounds" />
          </mxGeometry>
        </mxCell>
        <mxCell id="EEHmMVJqZzsaK7D_wYMv-885" value="" style="shape=tableRow;horizontal=0;startSize=0;swimlaneHead=0;swimlaneBody=0;fillColor=none;collapsible=0;dropTarget=0;points=[[0,0.5],[1,0.5]];portConstraint=eastwest;top=0;left=0;right=0;bottom=0;swimlaneLine=1;" vertex="1" parent="EEHmMVJqZzsaK7D_wYMv-881">
          <mxGeometry y="49" width="283" height="30" as="geometry" />
        </mxCell>
        <mxCell id="EEHmMVJqZzsaK7D_wYMv-886" value="*" style="shape=partialRectangle;connectable=0;fillColor=none;top=0;left=0;bottom=0;right=0;editable=1;overflow=hidden;whiteSpace=wrap;html=1;swimlaneLine=1;" vertex="1" parent="EEHmMVJqZzsaK7D_wYMv-885">
          <mxGeometry width="30" height="30" as="geometry">
            <mxRectangle width="30" height="30" as="alternateBounds" />
          </mxGeometry>
        </mxCell>
        <mxCell id="EEHmMVJqZzsaK7D_wYMv-887" value="status_sistema_descrição: varchar(50)" style="shape=partialRectangle;connectable=0;fillColor=none;top=0;left=0;bottom=0;right=0;align=left;spacingLeft=6;overflow=hidden;whiteSpace=wrap;html=1;fontStyle=0;swimlaneLine=1;" vertex="1" parent="EEHmMVJqZzsaK7D_wYMv-885">
          <mxGeometry x="30" width="253" height="30" as="geometry">
            <mxRectangle width="253" height="30" as="alternateBounds" />
          </mxGeometry>
        </mxCell>
        <mxCell id="EEHmMVJqZzsaK7D_wYMv-889" style="edgeStyle=orthogonalEdgeStyle;rounded=0;orthogonalLoop=1;jettySize=auto;html=1;exitX=0;exitY=0.5;exitDx=0;exitDy=0;entryX=0;entryY=0.5;entryDx=0;entryDy=0;swimlaneLine=1;" edge="1" parent="WIyWlLk6GJQsqaUBKTNV-1" source="EEHmMVJqZzsaK7D_wYMv-882" target="FOksgfGxdBfBZHIW1R6P-98">
          <mxGeometry relative="1" as="geometry" />
        </mxCell>
        <mxCell id="EEHmMVJqZzsaK7D_wYMv-890" value="Categoria Endereço" style="shape=table;startSize=20;container=1;collapsible=1;childLayout=tableLayout;fixedRows=1;rowLines=0;fontStyle=1;align=center;resizeLast=1;html=1;swimlaneLine=1;" vertex="1" parent="WIyWlLk6GJQsqaUBKTNV-1">
          <mxGeometry x="490" y="320" width="283" height="80" as="geometry" />
        </mxCell>
        <mxCell id="EEHmMVJqZzsaK7D_wYMv-891" value="" style="shape=tableRow;horizontal=0;startSize=0;swimlaneHead=0;swimlaneBody=0;fillColor=none;collapsible=0;dropTarget=0;points=[[0,0.5],[1,0.5]];portConstraint=eastwest;top=0;left=0;right=0;bottom=1;swimlaneLine=1;" vertex="1" parent="EEHmMVJqZzsaK7D_wYMv-890">
          <mxGeometry y="20" width="283" height="29" as="geometry" />
        </mxCell>
        <mxCell id="EEHmMVJqZzsaK7D_wYMv-892" value="PK" style="shape=partialRectangle;connectable=0;fillColor=none;top=0;left=0;bottom=0;right=0;fontStyle=1;overflow=hidden;whiteSpace=wrap;html=1;swimlaneLine=1;" vertex="1" parent="EEHmMVJqZzsaK7D_wYMv-891">
          <mxGeometry width="30" height="29" as="geometry">
            <mxRectangle width="30" height="29" as="alternateBounds" />
          </mxGeometry>
        </mxCell>
        <mxCell id="EEHmMVJqZzsaK7D_wYMv-893" value="categoria_endereco_id: smallint" style="shape=partialRectangle;connectable=0;fillColor=none;top=0;left=0;bottom=0;right=0;align=left;spacingLeft=6;fontStyle=5;overflow=hidden;whiteSpace=wrap;html=1;swimlaneLine=1;" vertex="1" parent="EEHmMVJqZzsaK7D_wYMv-891">
          <mxGeometry x="30" width="253" height="29" as="geometry">
            <mxRectangle width="253" height="29" as="alternateBounds" />
          </mxGeometry>
        </mxCell>
        <mxCell id="EEHmMVJqZzsaK7D_wYMv-894" value="" style="shape=tableRow;horizontal=0;startSize=0;swimlaneHead=0;swimlaneBody=0;fillColor=none;collapsible=0;dropTarget=0;points=[[0,0.5],[1,0.5]];portConstraint=eastwest;top=0;left=0;right=0;bottom=0;swimlaneLine=1;" vertex="1" parent="EEHmMVJqZzsaK7D_wYMv-890">
          <mxGeometry y="49" width="283" height="30" as="geometry" />
        </mxCell>
        <mxCell id="EEHmMVJqZzsaK7D_wYMv-895" value="*" style="shape=partialRectangle;connectable=0;fillColor=none;top=0;left=0;bottom=0;right=0;editable=1;overflow=hidden;whiteSpace=wrap;html=1;swimlaneLine=1;" vertex="1" parent="EEHmMVJqZzsaK7D_wYMv-894">
          <mxGeometry width="30" height="30" as="geometry">
            <mxRectangle width="30" height="30" as="alternateBounds" />
          </mxGeometry>
        </mxCell>
        <mxCell id="EEHmMVJqZzsaK7D_wYMv-896" value="categoria_endereco_descrição: varchar(50)" style="shape=partialRectangle;connectable=0;fillColor=none;top=0;left=0;bottom=0;right=0;align=left;spacingLeft=6;overflow=hidden;whiteSpace=wrap;html=1;fontStyle=0;swimlaneLine=1;" vertex="1" parent="EEHmMVJqZzsaK7D_wYMv-894">
          <mxGeometry x="30" width="253" height="30" as="geometry">
            <mxRectangle width="253" height="30" as="alternateBounds" />
          </mxGeometry>
        </mxCell>
        <mxCell id="EEHmMVJqZzsaK7D_wYMv-905" style="edgeStyle=orthogonalEdgeStyle;rounded=0;orthogonalLoop=1;jettySize=auto;html=1;exitX=0;exitY=0.5;exitDx=0;exitDy=0;entryX=0;entryY=0.5;entryDx=0;entryDy=0;swimlaneLine=1;" edge="1" parent="WIyWlLk6GJQsqaUBKTNV-1" source="EEHmMVJqZzsaK7D_wYMv-891" target="6It09mlc2z2I1y0DJIgb-23">
          <mxGeometry relative="1" as="geometry" />
        </mxCell>
        <mxCell id="FOksgfGxdBfBZHIW1R6P-91" value="Sistema" style="shape=table;startSize=20;container=1;collapsible=1;childLayout=tableLayout;fixedRows=1;rowLines=0;fontStyle=1;align=center;resizeLast=1;html=1;swimlaneLine=1;" parent="WIyWlLk6GJQsqaUBKTNV-1" vertex="1">
          <mxGeometry x="880" y="550" width="283" height="260" as="geometry" />
        </mxCell>
        <mxCell id="FOksgfGxdBfBZHIW1R6P-92" value="" style="shape=tableRow;horizontal=0;startSize=0;swimlaneHead=0;swimlaneBody=0;fillColor=none;collapsible=0;dropTarget=0;points=[[0,0.5],[1,0.5]];portConstraint=eastwest;top=0;left=0;right=0;bottom=1;swimlaneLine=1;" parent="FOksgfGxdBfBZHIW1R6P-91" vertex="1">
          <mxGeometry y="20" width="283" height="29" as="geometry" />
        </mxCell>
        <mxCell id="FOksgfGxdBfBZHIW1R6P-93" value="PK" style="shape=partialRectangle;connectable=0;fillColor=none;top=0;left=0;bottom=0;right=0;fontStyle=1;overflow=hidden;whiteSpace=wrap;html=1;swimlaneLine=1;" parent="FOksgfGxdBfBZHIW1R6P-92" vertex="1">
          <mxGeometry width="30" height="29" as="geometry">
            <mxRectangle width="30" height="29" as="alternateBounds" />
          </mxGeometry>
        </mxCell>
        <mxCell id="FOksgfGxdBfBZHIW1R6P-94" value="sistema_id: int" style="shape=partialRectangle;connectable=0;fillColor=none;top=0;left=0;bottom=0;right=0;align=left;spacingLeft=6;fontStyle=5;overflow=hidden;whiteSpace=wrap;html=1;swimlaneLine=1;" parent="FOksgfGxdBfBZHIW1R6P-92" vertex="1">
          <mxGeometry x="30" width="253" height="29" as="geometry">
            <mxRectangle width="253" height="29" as="alternateBounds" />
          </mxGeometry>
        </mxCell>
        <mxCell id="FOksgfGxdBfBZHIW1R6P-95" value="" style="shape=tableRow;horizontal=0;startSize=0;swimlaneHead=0;swimlaneBody=0;fillColor=none;collapsible=0;dropTarget=0;points=[[0,0.5],[1,0.5]];portConstraint=eastwest;top=0;left=0;right=0;bottom=0;swimlaneLine=1;" parent="FOksgfGxdBfBZHIW1R6P-91" vertex="1">
          <mxGeometry y="49" width="283" height="30" as="geometry" />
        </mxCell>
        <mxCell id="FOksgfGxdBfBZHIW1R6P-96" value="*" style="shape=partialRectangle;connectable=0;fillColor=none;top=0;left=0;bottom=0;right=0;editable=1;overflow=hidden;whiteSpace=wrap;html=1;swimlaneLine=1;" parent="FOksgfGxdBfBZHIW1R6P-95" vertex="1">
          <mxGeometry width="30" height="30" as="geometry">
            <mxRectangle width="30" height="30" as="alternateBounds" />
          </mxGeometry>
        </mxCell>
        <mxCell id="FOksgfGxdBfBZHIW1R6P-97" value="sistema_nome: varchar(256)" style="shape=partialRectangle;connectable=0;fillColor=none;top=0;left=0;bottom=0;right=0;align=left;spacingLeft=6;overflow=hidden;whiteSpace=wrap;html=1;fontStyle=0;swimlaneLine=1;" parent="FOksgfGxdBfBZHIW1R6P-95" vertex="1">
          <mxGeometry x="30" width="253" height="30" as="geometry">
            <mxRectangle width="253" height="30" as="alternateBounds" />
          </mxGeometry>
        </mxCell>
        <mxCell id="FOksgfGxdBfBZHIW1R6P-98" style="shape=tableRow;horizontal=0;startSize=0;swimlaneHead=0;swimlaneBody=0;fillColor=none;collapsible=0;dropTarget=0;points=[[0,0.5],[1,0.5]];portConstraint=eastwest;top=0;left=0;right=0;bottom=0;swimlaneLine=1;" parent="FOksgfGxdBfBZHIW1R6P-91" vertex="1">
          <mxGeometry y="79" width="283" height="30" as="geometry" />
        </mxCell>
        <mxCell id="FOksgfGxdBfBZHIW1R6P-99" value="*FK" style="shape=partialRectangle;connectable=0;fillColor=none;top=0;left=0;bottom=0;right=0;editable=1;overflow=hidden;whiteSpace=wrap;html=1;swimlaneLine=1;" parent="FOksgfGxdBfBZHIW1R6P-98" vertex="1">
          <mxGeometry width="30" height="30" as="geometry">
            <mxRectangle width="30" height="30" as="alternateBounds" />
          </mxGeometry>
        </mxCell>
        <mxCell id="FOksgfGxdBfBZHIW1R6P-100" value="status_sistema_id: smallint" style="shape=partialRectangle;connectable=0;fillColor=none;top=0;left=0;bottom=0;right=0;align=left;spacingLeft=6;overflow=hidden;whiteSpace=wrap;html=1;fontStyle=0;swimlaneLine=1;" parent="FOksgfGxdBfBZHIW1R6P-98" vertex="1">
          <mxGeometry x="30" width="253" height="30" as="geometry">
            <mxRectangle width="253" height="30" as="alternateBounds" />
          </mxGeometry>
        </mxCell>
        <mxCell id="EEHmMVJqZzsaK7D_wYMv-972" style="shape=tableRow;horizontal=0;startSize=0;swimlaneHead=0;swimlaneBody=0;fillColor=none;collapsible=0;dropTarget=0;points=[[0,0.5],[1,0.5]];portConstraint=eastwest;top=0;left=0;right=0;bottom=0;swimlaneLine=1;" vertex="1" parent="FOksgfGxdBfBZHIW1R6P-91">
          <mxGeometry y="109" width="283" height="30" as="geometry" />
        </mxCell>
        <mxCell id="EEHmMVJqZzsaK7D_wYMv-973" value="*" style="shape=partialRectangle;connectable=0;fillColor=none;top=0;left=0;bottom=0;right=0;editable=1;overflow=hidden;whiteSpace=wrap;html=1;swimlaneLine=1;" vertex="1" parent="EEHmMVJqZzsaK7D_wYMv-972">
          <mxGeometry width="30" height="30" as="geometry">
            <mxRectangle width="30" height="30" as="alternateBounds" />
          </mxGeometry>
        </mxCell>
        <mxCell id="EEHmMVJqZzsaK7D_wYMv-974" value="row_creation_time: timestamp" style="shape=partialRectangle;connectable=0;fillColor=none;top=0;left=0;bottom=0;right=0;align=left;spacingLeft=6;overflow=hidden;whiteSpace=wrap;html=1;fontStyle=0;swimlaneLine=1;" vertex="1" parent="EEHmMVJqZzsaK7D_wYMv-972">
          <mxGeometry x="30" width="253" height="30" as="geometry">
            <mxRectangle width="253" height="30" as="alternateBounds" />
          </mxGeometry>
        </mxCell>
        <mxCell id="EEHmMVJqZzsaK7D_wYMv-975" style="shape=tableRow;horizontal=0;startSize=0;swimlaneHead=0;swimlaneBody=0;fillColor=none;collapsible=0;dropTarget=0;points=[[0,0.5],[1,0.5]];portConstraint=eastwest;top=0;left=0;right=0;bottom=0;swimlaneLine=1;" vertex="1" parent="FOksgfGxdBfBZHIW1R6P-91">
          <mxGeometry y="139" width="283" height="30" as="geometry" />
        </mxCell>
        <mxCell id="EEHmMVJqZzsaK7D_wYMv-976" value="*" style="shape=partialRectangle;connectable=0;fillColor=none;top=0;left=0;bottom=0;right=0;editable=1;overflow=hidden;whiteSpace=wrap;html=1;swimlaneLine=1;" vertex="1" parent="EEHmMVJqZzsaK7D_wYMv-975">
          <mxGeometry width="30" height="30" as="geometry">
            <mxRectangle width="30" height="30" as="alternateBounds" />
          </mxGeometry>
        </mxCell>
        <mxCell id="EEHmMVJqZzsaK7D_wYMv-977" value="row_update_time: timestamp" style="shape=partialRectangle;connectable=0;fillColor=none;top=0;left=0;bottom=0;right=0;align=left;spacingLeft=6;overflow=hidden;whiteSpace=wrap;html=1;fontStyle=0;swimlaneLine=1;" vertex="1" parent="EEHmMVJqZzsaK7D_wYMv-975">
          <mxGeometry x="30" width="253" height="30" as="geometry">
            <mxRectangle width="253" height="30" as="alternateBounds" />
          </mxGeometry>
        </mxCell>
        <mxCell id="EEHmMVJqZzsaK7D_wYMv-978" style="shape=tableRow;horizontal=0;startSize=0;swimlaneHead=0;swimlaneBody=0;fillColor=none;collapsible=0;dropTarget=0;points=[[0,0.5],[1,0.5]];portConstraint=eastwest;top=0;left=0;right=0;bottom=0;swimlaneLine=1;" vertex="1" parent="FOksgfGxdBfBZHIW1R6P-91">
          <mxGeometry y="169" width="283" height="30" as="geometry" />
        </mxCell>
        <mxCell id="EEHmMVJqZzsaK7D_wYMv-979" value="*" style="shape=partialRectangle;connectable=0;fillColor=none;top=0;left=0;bottom=0;right=0;editable=1;overflow=hidden;whiteSpace=wrap;html=1;swimlaneLine=1;" vertex="1" parent="EEHmMVJqZzsaK7D_wYMv-978">
          <mxGeometry width="30" height="30" as="geometry">
            <mxRectangle width="30" height="30" as="alternateBounds" />
          </mxGeometry>
        </mxCell>
        <mxCell id="EEHmMVJqZzsaK7D_wYMv-980" value="row_creation_user: varchar(30)" style="shape=partialRectangle;connectable=0;fillColor=none;top=0;left=0;bottom=0;right=0;align=left;spacingLeft=6;overflow=hidden;whiteSpace=wrap;html=1;fontStyle=0;swimlaneLine=1;" vertex="1" parent="EEHmMVJqZzsaK7D_wYMv-978">
          <mxGeometry x="30" width="253" height="30" as="geometry">
            <mxRectangle width="253" height="30" as="alternateBounds" />
          </mxGeometry>
        </mxCell>
        <mxCell id="EEHmMVJqZzsaK7D_wYMv-981" style="shape=tableRow;horizontal=0;startSize=0;swimlaneHead=0;swimlaneBody=0;fillColor=none;collapsible=0;dropTarget=0;points=[[0,0.5],[1,0.5]];portConstraint=eastwest;top=0;left=0;right=0;bottom=0;swimlaneLine=1;" vertex="1" parent="FOksgfGxdBfBZHIW1R6P-91">
          <mxGeometry y="199" width="283" height="30" as="geometry" />
        </mxCell>
        <mxCell id="EEHmMVJqZzsaK7D_wYMv-982" value="*" style="shape=partialRectangle;connectable=0;fillColor=none;top=0;left=0;bottom=0;right=0;editable=1;overflow=hidden;whiteSpace=wrap;html=1;swimlaneLine=1;" vertex="1" parent="EEHmMVJqZzsaK7D_wYMv-981">
          <mxGeometry width="30" height="30" as="geometry">
            <mxRectangle width="30" height="30" as="alternateBounds" />
          </mxGeometry>
        </mxCell>
        <mxCell id="EEHmMVJqZzsaK7D_wYMv-983" value="row_update_user: varchar(30)" style="shape=partialRectangle;connectable=0;fillColor=none;top=0;left=0;bottom=0;right=0;align=left;spacingLeft=6;overflow=hidden;whiteSpace=wrap;html=1;fontStyle=0;swimlaneLine=1;" vertex="1" parent="EEHmMVJqZzsaK7D_wYMv-981">
          <mxGeometry x="30" width="253" height="30" as="geometry">
            <mxRectangle width="253" height="30" as="alternateBounds" />
          </mxGeometry>
        </mxCell>
        <mxCell id="EEHmMVJqZzsaK7D_wYMv-984" style="shape=tableRow;horizontal=0;startSize=0;swimlaneHead=0;swimlaneBody=0;fillColor=none;collapsible=0;dropTarget=0;points=[[0,0.5],[1,0.5]];portConstraint=eastwest;top=0;left=0;right=0;bottom=0;swimlaneLine=1;" vertex="1" parent="FOksgfGxdBfBZHIW1R6P-91">
          <mxGeometry y="229" width="283" height="30" as="geometry" />
        </mxCell>
        <mxCell id="EEHmMVJqZzsaK7D_wYMv-985" value="*" style="shape=partialRectangle;connectable=0;fillColor=none;top=0;left=0;bottom=0;right=0;editable=1;overflow=hidden;whiteSpace=wrap;html=1;swimlaneLine=1;" vertex="1" parent="EEHmMVJqZzsaK7D_wYMv-984">
          <mxGeometry width="30" height="30" as="geometry">
            <mxRectangle width="30" height="30" as="alternateBounds" />
          </mxGeometry>
        </mxCell>
        <mxCell id="EEHmMVJqZzsaK7D_wYMv-986" value="row_is_deleted: bool" style="shape=partialRectangle;connectable=0;fillColor=none;top=0;left=0;bottom=0;right=0;align=left;spacingLeft=6;overflow=hidden;whiteSpace=wrap;html=1;fontStyle=0;swimlaneLine=1;" vertex="1" parent="EEHmMVJqZzsaK7D_wYMv-984">
          <mxGeometry x="30" width="253" height="30" as="geometry">
            <mxRectangle width="253" height="30" as="alternateBounds" />
          </mxGeometry>
        </mxCell>
        <mxCell id="6It09mlc2z2I1y0DJIgb-30" value="Orgão" style="shape=table;startSize=20;container=1;collapsible=1;childLayout=tableLayout;fixedRows=1;rowLines=0;fontStyle=1;align=center;resizeLast=1;html=1;swimlaneLine=1;" parent="WIyWlLk6GJQsqaUBKTNV-1" vertex="1">
          <mxGeometry x="880" y="-10" width="283" height="260" as="geometry" />
        </mxCell>
        <mxCell id="6It09mlc2z2I1y0DJIgb-31" value="" style="shape=tableRow;horizontal=0;startSize=0;swimlaneHead=0;swimlaneBody=0;fillColor=none;collapsible=0;dropTarget=0;points=[[0,0.5],[1,0.5]];portConstraint=eastwest;top=0;left=0;right=0;bottom=1;swimlaneLine=1;" parent="6It09mlc2z2I1y0DJIgb-30" vertex="1">
          <mxGeometry y="20" width="283" height="29" as="geometry" />
        </mxCell>
        <mxCell id="6It09mlc2z2I1y0DJIgb-32" value="PK" style="shape=partialRectangle;connectable=0;fillColor=none;top=0;left=0;bottom=0;right=0;fontStyle=1;overflow=hidden;whiteSpace=wrap;html=1;swimlaneLine=1;" parent="6It09mlc2z2I1y0DJIgb-31" vertex="1">
          <mxGeometry width="30" height="29" as="geometry">
            <mxRectangle width="30" height="29" as="alternateBounds" />
          </mxGeometry>
        </mxCell>
        <mxCell id="6It09mlc2z2I1y0DJIgb-33" value="orgão_&lt;span style=&quot;background-color: transparent; color: light-dark(rgb(0, 0, 0), rgb(255, 255, 255));&quot;&gt;id: int&lt;/span&gt;" style="shape=partialRectangle;connectable=0;fillColor=none;top=0;left=0;bottom=0;right=0;align=left;spacingLeft=6;fontStyle=5;overflow=hidden;whiteSpace=wrap;html=1;swimlaneLine=1;" parent="6It09mlc2z2I1y0DJIgb-31" vertex="1">
          <mxGeometry x="30" width="253" height="29" as="geometry">
            <mxRectangle width="253" height="29" as="alternateBounds" />
          </mxGeometry>
        </mxCell>
        <mxCell id="6It09mlc2z2I1y0DJIgb-34" value="" style="shape=tableRow;horizontal=0;startSize=0;swimlaneHead=0;swimlaneBody=0;fillColor=none;collapsible=0;dropTarget=0;points=[[0,0.5],[1,0.5]];portConstraint=eastwest;top=0;left=0;right=0;bottom=0;swimlaneLine=1;" parent="6It09mlc2z2I1y0DJIgb-30" vertex="1">
          <mxGeometry y="49" width="283" height="30" as="geometry" />
        </mxCell>
        <mxCell id="6It09mlc2z2I1y0DJIgb-35" value="*" style="shape=partialRectangle;connectable=0;fillColor=none;top=0;left=0;bottom=0;right=0;editable=1;overflow=hidden;whiteSpace=wrap;html=1;swimlaneLine=1;" parent="6It09mlc2z2I1y0DJIgb-34" vertex="1">
          <mxGeometry width="30" height="30" as="geometry">
            <mxRectangle width="30" height="30" as="alternateBounds" />
          </mxGeometry>
        </mxCell>
        <mxCell id="6It09mlc2z2I1y0DJIgb-36" value="orgao_nome: varchar(64)" style="shape=partialRectangle;connectable=0;fillColor=none;top=0;left=0;bottom=0;right=0;align=left;spacingLeft=6;overflow=hidden;whiteSpace=wrap;html=1;fontStyle=0;swimlaneLine=1;" parent="6It09mlc2z2I1y0DJIgb-34" vertex="1">
          <mxGeometry x="30" width="253" height="30" as="geometry">
            <mxRectangle width="253" height="30" as="alternateBounds" />
          </mxGeometry>
        </mxCell>
        <mxCell id="6It09mlc2z2I1y0DJIgb-37" style="shape=tableRow;horizontal=0;startSize=0;swimlaneHead=0;swimlaneBody=0;fillColor=none;collapsible=0;dropTarget=0;points=[[0,0.5],[1,0.5]];portConstraint=eastwest;top=0;left=0;right=0;bottom=0;swimlaneLine=1;" parent="6It09mlc2z2I1y0DJIgb-30" vertex="1">
          <mxGeometry y="79" width="283" height="30" as="geometry" />
        </mxCell>
        <mxCell id="6It09mlc2z2I1y0DJIgb-38" value="" style="shape=partialRectangle;connectable=0;fillColor=none;top=0;left=0;bottom=0;right=0;editable=1;overflow=hidden;whiteSpace=wrap;html=1;swimlaneLine=1;" parent="6It09mlc2z2I1y0DJIgb-37" vertex="1">
          <mxGeometry width="30" height="30" as="geometry">
            <mxRectangle width="30" height="30" as="alternateBounds" />
          </mxGeometry>
        </mxCell>
        <mxCell id="6It09mlc2z2I1y0DJIgb-39" value="orgao_descrição: varchar(256)" style="shape=partialRectangle;connectable=0;fillColor=none;top=0;left=0;bottom=0;right=0;align=left;spacingLeft=6;overflow=hidden;whiteSpace=wrap;html=1;fontStyle=0;swimlaneLine=1;" parent="6It09mlc2z2I1y0DJIgb-37" vertex="1">
          <mxGeometry x="30" width="253" height="30" as="geometry">
            <mxRectangle width="253" height="30" as="alternateBounds" />
          </mxGeometry>
        </mxCell>
        <mxCell id="EEHmMVJqZzsaK7D_wYMv-942" style="shape=tableRow;horizontal=0;startSize=0;swimlaneHead=0;swimlaneBody=0;fillColor=none;collapsible=0;dropTarget=0;points=[[0,0.5],[1,0.5]];portConstraint=eastwest;top=0;left=0;right=0;bottom=0;swimlaneLine=1;" vertex="1" parent="6It09mlc2z2I1y0DJIgb-30">
          <mxGeometry y="109" width="283" height="30" as="geometry" />
        </mxCell>
        <mxCell id="EEHmMVJqZzsaK7D_wYMv-943" value="*" style="shape=partialRectangle;connectable=0;fillColor=none;top=0;left=0;bottom=0;right=0;editable=1;overflow=hidden;whiteSpace=wrap;html=1;swimlaneLine=1;" vertex="1" parent="EEHmMVJqZzsaK7D_wYMv-942">
          <mxGeometry width="30" height="30" as="geometry">
            <mxRectangle width="30" height="30" as="alternateBounds" />
          </mxGeometry>
        </mxCell>
        <mxCell id="EEHmMVJqZzsaK7D_wYMv-944" value="row_creation_time: timestamp" style="shape=partialRectangle;connectable=0;fillColor=none;top=0;left=0;bottom=0;right=0;align=left;spacingLeft=6;overflow=hidden;whiteSpace=wrap;html=1;fontStyle=0;swimlaneLine=1;" vertex="1" parent="EEHmMVJqZzsaK7D_wYMv-942">
          <mxGeometry x="30" width="253" height="30" as="geometry">
            <mxRectangle width="253" height="30" as="alternateBounds" />
          </mxGeometry>
        </mxCell>
        <mxCell id="EEHmMVJqZzsaK7D_wYMv-945" style="shape=tableRow;horizontal=0;startSize=0;swimlaneHead=0;swimlaneBody=0;fillColor=none;collapsible=0;dropTarget=0;points=[[0,0.5],[1,0.5]];portConstraint=eastwest;top=0;left=0;right=0;bottom=0;swimlaneLine=1;" vertex="1" parent="6It09mlc2z2I1y0DJIgb-30">
          <mxGeometry y="139" width="283" height="30" as="geometry" />
        </mxCell>
        <mxCell id="EEHmMVJqZzsaK7D_wYMv-946" value="*" style="shape=partialRectangle;connectable=0;fillColor=none;top=0;left=0;bottom=0;right=0;editable=1;overflow=hidden;whiteSpace=wrap;html=1;swimlaneLine=1;" vertex="1" parent="EEHmMVJqZzsaK7D_wYMv-945">
          <mxGeometry width="30" height="30" as="geometry">
            <mxRectangle width="30" height="30" as="alternateBounds" />
          </mxGeometry>
        </mxCell>
        <mxCell id="EEHmMVJqZzsaK7D_wYMv-947" value="row_update_time: timestamp" style="shape=partialRectangle;connectable=0;fillColor=none;top=0;left=0;bottom=0;right=0;align=left;spacingLeft=6;overflow=hidden;whiteSpace=wrap;html=1;fontStyle=0;swimlaneLine=1;" vertex="1" parent="EEHmMVJqZzsaK7D_wYMv-945">
          <mxGeometry x="30" width="253" height="30" as="geometry">
            <mxRectangle width="253" height="30" as="alternateBounds" />
          </mxGeometry>
        </mxCell>
        <mxCell id="EEHmMVJqZzsaK7D_wYMv-948" style="shape=tableRow;horizontal=0;startSize=0;swimlaneHead=0;swimlaneBody=0;fillColor=none;collapsible=0;dropTarget=0;points=[[0,0.5],[1,0.5]];portConstraint=eastwest;top=0;left=0;right=0;bottom=0;swimlaneLine=1;" vertex="1" parent="6It09mlc2z2I1y0DJIgb-30">
          <mxGeometry y="169" width="283" height="30" as="geometry" />
        </mxCell>
        <mxCell id="EEHmMVJqZzsaK7D_wYMv-949" value="*" style="shape=partialRectangle;connectable=0;fillColor=none;top=0;left=0;bottom=0;right=0;editable=1;overflow=hidden;whiteSpace=wrap;html=1;swimlaneLine=1;" vertex="1" parent="EEHmMVJqZzsaK7D_wYMv-948">
          <mxGeometry width="30" height="30" as="geometry">
            <mxRectangle width="30" height="30" as="alternateBounds" />
          </mxGeometry>
        </mxCell>
        <mxCell id="EEHmMVJqZzsaK7D_wYMv-950" value="row_creation_user: varchar(30)" style="shape=partialRectangle;connectable=0;fillColor=none;top=0;left=0;bottom=0;right=0;align=left;spacingLeft=6;overflow=hidden;whiteSpace=wrap;html=1;fontStyle=0;swimlaneLine=1;" vertex="1" parent="EEHmMVJqZzsaK7D_wYMv-948">
          <mxGeometry x="30" width="253" height="30" as="geometry">
            <mxRectangle width="253" height="30" as="alternateBounds" />
          </mxGeometry>
        </mxCell>
        <mxCell id="EEHmMVJqZzsaK7D_wYMv-951" style="shape=tableRow;horizontal=0;startSize=0;swimlaneHead=0;swimlaneBody=0;fillColor=none;collapsible=0;dropTarget=0;points=[[0,0.5],[1,0.5]];portConstraint=eastwest;top=0;left=0;right=0;bottom=0;swimlaneLine=1;" vertex="1" parent="6It09mlc2z2I1y0DJIgb-30">
          <mxGeometry y="199" width="283" height="30" as="geometry" />
        </mxCell>
        <mxCell id="EEHmMVJqZzsaK7D_wYMv-952" value="*" style="shape=partialRectangle;connectable=0;fillColor=none;top=0;left=0;bottom=0;right=0;editable=1;overflow=hidden;whiteSpace=wrap;html=1;swimlaneLine=1;" vertex="1" parent="EEHmMVJqZzsaK7D_wYMv-951">
          <mxGeometry width="30" height="30" as="geometry">
            <mxRectangle width="30" height="30" as="alternateBounds" />
          </mxGeometry>
        </mxCell>
        <mxCell id="EEHmMVJqZzsaK7D_wYMv-953" value="row_update_user: varchar(30)" style="shape=partialRectangle;connectable=0;fillColor=none;top=0;left=0;bottom=0;right=0;align=left;spacingLeft=6;overflow=hidden;whiteSpace=wrap;html=1;fontStyle=0;swimlaneLine=1;" vertex="1" parent="EEHmMVJqZzsaK7D_wYMv-951">
          <mxGeometry x="30" width="253" height="30" as="geometry">
            <mxRectangle width="253" height="30" as="alternateBounds" />
          </mxGeometry>
        </mxCell>
        <mxCell id="EEHmMVJqZzsaK7D_wYMv-954" style="shape=tableRow;horizontal=0;startSize=0;swimlaneHead=0;swimlaneBody=0;fillColor=none;collapsible=0;dropTarget=0;points=[[0,0.5],[1,0.5]];portConstraint=eastwest;top=0;left=0;right=0;bottom=0;swimlaneLine=1;" vertex="1" parent="6It09mlc2z2I1y0DJIgb-30">
          <mxGeometry y="229" width="283" height="30" as="geometry" />
        </mxCell>
        <mxCell id="EEHmMVJqZzsaK7D_wYMv-955" value="*" style="shape=partialRectangle;connectable=0;fillColor=none;top=0;left=0;bottom=0;right=0;editable=1;overflow=hidden;whiteSpace=wrap;html=1;swimlaneLine=1;" vertex="1" parent="EEHmMVJqZzsaK7D_wYMv-954">
          <mxGeometry width="30" height="30" as="geometry">
            <mxRectangle width="30" height="30" as="alternateBounds" />
          </mxGeometry>
        </mxCell>
        <mxCell id="EEHmMVJqZzsaK7D_wYMv-956" value="row_is_deleted: bool" style="shape=partialRectangle;connectable=0;fillColor=none;top=0;left=0;bottom=0;right=0;align=left;spacingLeft=6;overflow=hidden;whiteSpace=wrap;html=1;fontStyle=0;swimlaneLine=1;" vertex="1" parent="EEHmMVJqZzsaK7D_wYMv-954">
          <mxGeometry x="30" width="253" height="30" as="geometry">
            <mxRectangle width="253" height="30" as="alternateBounds" />
          </mxGeometry>
        </mxCell>
        <mxCell id="6It09mlc2z2I1y0DJIgb-40" value="Categoria" style="shape=table;startSize=20;container=1;collapsible=1;childLayout=tableLayout;fixedRows=1;rowLines=0;fontStyle=1;align=center;resizeLast=1;html=1;swimlaneLine=1;" parent="WIyWlLk6GJQsqaUBKTNV-1" vertex="1">
          <mxGeometry x="880" y="270" width="283" height="260" as="geometry" />
        </mxCell>
        <mxCell id="6It09mlc2z2I1y0DJIgb-41" value="" style="shape=tableRow;horizontal=0;startSize=0;swimlaneHead=0;swimlaneBody=0;fillColor=none;collapsible=0;dropTarget=0;points=[[0,0.5],[1,0.5]];portConstraint=eastwest;top=0;left=0;right=0;bottom=1;swimlaneLine=1;" parent="6It09mlc2z2I1y0DJIgb-40" vertex="1">
          <mxGeometry y="20" width="283" height="29" as="geometry" />
        </mxCell>
        <mxCell id="6It09mlc2z2I1y0DJIgb-42" value="PK" style="shape=partialRectangle;connectable=0;fillColor=none;top=0;left=0;bottom=0;right=0;fontStyle=1;overflow=hidden;whiteSpace=wrap;html=1;swimlaneLine=1;" parent="6It09mlc2z2I1y0DJIgb-41" vertex="1">
          <mxGeometry width="30" height="29" as="geometry">
            <mxRectangle width="30" height="29" as="alternateBounds" />
          </mxGeometry>
        </mxCell>
        <mxCell id="6It09mlc2z2I1y0DJIgb-43" value="categoria_id: int" style="shape=partialRectangle;connectable=0;fillColor=none;top=0;left=0;bottom=0;right=0;align=left;spacingLeft=6;fontStyle=5;overflow=hidden;whiteSpace=wrap;html=1;swimlaneLine=1;" parent="6It09mlc2z2I1y0DJIgb-41" vertex="1">
          <mxGeometry x="30" width="253" height="29" as="geometry">
            <mxRectangle width="253" height="29" as="alternateBounds" />
          </mxGeometry>
        </mxCell>
        <mxCell id="6It09mlc2z2I1y0DJIgb-44" value="" style="shape=tableRow;horizontal=0;startSize=0;swimlaneHead=0;swimlaneBody=0;fillColor=none;collapsible=0;dropTarget=0;points=[[0,0.5],[1,0.5]];portConstraint=eastwest;top=0;left=0;right=0;bottom=0;swimlaneLine=1;" parent="6It09mlc2z2I1y0DJIgb-40" vertex="1">
          <mxGeometry y="49" width="283" height="30" as="geometry" />
        </mxCell>
        <mxCell id="6It09mlc2z2I1y0DJIgb-45" value="*" style="shape=partialRectangle;connectable=0;fillColor=none;top=0;left=0;bottom=0;right=0;editable=1;overflow=hidden;whiteSpace=wrap;html=1;swimlaneLine=1;" parent="6It09mlc2z2I1y0DJIgb-44" vertex="1">
          <mxGeometry width="30" height="30" as="geometry">
            <mxRectangle width="30" height="30" as="alternateBounds" />
          </mxGeometry>
        </mxCell>
        <mxCell id="6It09mlc2z2I1y0DJIgb-46" value="categoria_nome: varchar(256)" style="shape=partialRectangle;connectable=0;fillColor=none;top=0;left=0;bottom=0;right=0;align=left;spacingLeft=6;overflow=hidden;whiteSpace=wrap;html=1;fontStyle=0;swimlaneLine=1;" parent="6It09mlc2z2I1y0DJIgb-44" vertex="1">
          <mxGeometry x="30" width="253" height="30" as="geometry">
            <mxRectangle width="253" height="30" as="alternateBounds" />
          </mxGeometry>
        </mxCell>
        <mxCell id="6It09mlc2z2I1y0DJIgb-47" style="shape=tableRow;horizontal=0;startSize=0;swimlaneHead=0;swimlaneBody=0;fillColor=none;collapsible=0;dropTarget=0;points=[[0,0.5],[1,0.5]];portConstraint=eastwest;top=0;left=0;right=0;bottom=0;swimlaneLine=1;" parent="6It09mlc2z2I1y0DJIgb-40" vertex="1">
          <mxGeometry y="79" width="283" height="30" as="geometry" />
        </mxCell>
        <mxCell id="6It09mlc2z2I1y0DJIgb-48" value="" style="shape=partialRectangle;connectable=0;fillColor=none;top=0;left=0;bottom=0;right=0;editable=1;overflow=hidden;whiteSpace=wrap;html=1;swimlaneLine=1;" parent="6It09mlc2z2I1y0DJIgb-47" vertex="1">
          <mxGeometry width="30" height="30" as="geometry">
            <mxRectangle width="30" height="30" as="alternateBounds" />
          </mxGeometry>
        </mxCell>
        <mxCell id="6It09mlc2z2I1y0DJIgb-49" value="categoria_descrição: varchar(256)" style="shape=partialRectangle;connectable=0;fillColor=none;top=0;left=0;bottom=0;right=0;align=left;spacingLeft=6;overflow=hidden;whiteSpace=wrap;html=1;fontStyle=0;swimlaneLine=1;" parent="6It09mlc2z2I1y0DJIgb-47" vertex="1">
          <mxGeometry x="30" width="253" height="30" as="geometry">
            <mxRectangle width="253" height="30" as="alternateBounds" />
          </mxGeometry>
        </mxCell>
        <mxCell id="EEHmMVJqZzsaK7D_wYMv-957" style="shape=tableRow;horizontal=0;startSize=0;swimlaneHead=0;swimlaneBody=0;fillColor=none;collapsible=0;dropTarget=0;points=[[0,0.5],[1,0.5]];portConstraint=eastwest;top=0;left=0;right=0;bottom=0;swimlaneLine=1;" vertex="1" parent="6It09mlc2z2I1y0DJIgb-40">
          <mxGeometry y="109" width="283" height="30" as="geometry" />
        </mxCell>
        <mxCell id="EEHmMVJqZzsaK7D_wYMv-958" value="*" style="shape=partialRectangle;connectable=0;fillColor=none;top=0;left=0;bottom=0;right=0;editable=1;overflow=hidden;whiteSpace=wrap;html=1;swimlaneLine=1;" vertex="1" parent="EEHmMVJqZzsaK7D_wYMv-957">
          <mxGeometry width="30" height="30" as="geometry">
            <mxRectangle width="30" height="30" as="alternateBounds" />
          </mxGeometry>
        </mxCell>
        <mxCell id="EEHmMVJqZzsaK7D_wYMv-959" value="row_creation_time: timestamp" style="shape=partialRectangle;connectable=0;fillColor=none;top=0;left=0;bottom=0;right=0;align=left;spacingLeft=6;overflow=hidden;whiteSpace=wrap;html=1;fontStyle=0;swimlaneLine=1;" vertex="1" parent="EEHmMVJqZzsaK7D_wYMv-957">
          <mxGeometry x="30" width="253" height="30" as="geometry">
            <mxRectangle width="253" height="30" as="alternateBounds" />
          </mxGeometry>
        </mxCell>
        <mxCell id="EEHmMVJqZzsaK7D_wYMv-960" style="shape=tableRow;horizontal=0;startSize=0;swimlaneHead=0;swimlaneBody=0;fillColor=none;collapsible=0;dropTarget=0;points=[[0,0.5],[1,0.5]];portConstraint=eastwest;top=0;left=0;right=0;bottom=0;swimlaneLine=1;" vertex="1" parent="6It09mlc2z2I1y0DJIgb-40">
          <mxGeometry y="139" width="283" height="30" as="geometry" />
        </mxCell>
        <mxCell id="EEHmMVJqZzsaK7D_wYMv-961" value="*" style="shape=partialRectangle;connectable=0;fillColor=none;top=0;left=0;bottom=0;right=0;editable=1;overflow=hidden;whiteSpace=wrap;html=1;swimlaneLine=1;" vertex="1" parent="EEHmMVJqZzsaK7D_wYMv-960">
          <mxGeometry width="30" height="30" as="geometry">
            <mxRectangle width="30" height="30" as="alternateBounds" />
          </mxGeometry>
        </mxCell>
        <mxCell id="EEHmMVJqZzsaK7D_wYMv-962" value="row_update_time: timestamp" style="shape=partialRectangle;connectable=0;fillColor=none;top=0;left=0;bottom=0;right=0;align=left;spacingLeft=6;overflow=hidden;whiteSpace=wrap;html=1;fontStyle=0;swimlaneLine=1;" vertex="1" parent="EEHmMVJqZzsaK7D_wYMv-960">
          <mxGeometry x="30" width="253" height="30" as="geometry">
            <mxRectangle width="253" height="30" as="alternateBounds" />
          </mxGeometry>
        </mxCell>
        <mxCell id="EEHmMVJqZzsaK7D_wYMv-963" style="shape=tableRow;horizontal=0;startSize=0;swimlaneHead=0;swimlaneBody=0;fillColor=none;collapsible=0;dropTarget=0;points=[[0,0.5],[1,0.5]];portConstraint=eastwest;top=0;left=0;right=0;bottom=0;swimlaneLine=1;" vertex="1" parent="6It09mlc2z2I1y0DJIgb-40">
          <mxGeometry y="169" width="283" height="30" as="geometry" />
        </mxCell>
        <mxCell id="EEHmMVJqZzsaK7D_wYMv-964" value="*" style="shape=partialRectangle;connectable=0;fillColor=none;top=0;left=0;bottom=0;right=0;editable=1;overflow=hidden;whiteSpace=wrap;html=1;swimlaneLine=1;" vertex="1" parent="EEHmMVJqZzsaK7D_wYMv-963">
          <mxGeometry width="30" height="30" as="geometry">
            <mxRectangle width="30" height="30" as="alternateBounds" />
          </mxGeometry>
        </mxCell>
        <mxCell id="EEHmMVJqZzsaK7D_wYMv-965" value="row_creation_user: varchar(30)" style="shape=partialRectangle;connectable=0;fillColor=none;top=0;left=0;bottom=0;right=0;align=left;spacingLeft=6;overflow=hidden;whiteSpace=wrap;html=1;fontStyle=0;swimlaneLine=1;" vertex="1" parent="EEHmMVJqZzsaK7D_wYMv-963">
          <mxGeometry x="30" width="253" height="30" as="geometry">
            <mxRectangle width="253" height="30" as="alternateBounds" />
          </mxGeometry>
        </mxCell>
        <mxCell id="EEHmMVJqZzsaK7D_wYMv-966" style="shape=tableRow;horizontal=0;startSize=0;swimlaneHead=0;swimlaneBody=0;fillColor=none;collapsible=0;dropTarget=0;points=[[0,0.5],[1,0.5]];portConstraint=eastwest;top=0;left=0;right=0;bottom=0;swimlaneLine=1;" vertex="1" parent="6It09mlc2z2I1y0DJIgb-40">
          <mxGeometry y="199" width="283" height="30" as="geometry" />
        </mxCell>
        <mxCell id="EEHmMVJqZzsaK7D_wYMv-967" value="*" style="shape=partialRectangle;connectable=0;fillColor=none;top=0;left=0;bottom=0;right=0;editable=1;overflow=hidden;whiteSpace=wrap;html=1;swimlaneLine=1;" vertex="1" parent="EEHmMVJqZzsaK7D_wYMv-966">
          <mxGeometry width="30" height="30" as="geometry">
            <mxRectangle width="30" height="30" as="alternateBounds" />
          </mxGeometry>
        </mxCell>
        <mxCell id="EEHmMVJqZzsaK7D_wYMv-968" value="row_update_user: varchar(30)" style="shape=partialRectangle;connectable=0;fillColor=none;top=0;left=0;bottom=0;right=0;align=left;spacingLeft=6;overflow=hidden;whiteSpace=wrap;html=1;fontStyle=0;swimlaneLine=1;" vertex="1" parent="EEHmMVJqZzsaK7D_wYMv-966">
          <mxGeometry x="30" width="253" height="30" as="geometry">
            <mxRectangle width="253" height="30" as="alternateBounds" />
          </mxGeometry>
        </mxCell>
        <mxCell id="EEHmMVJqZzsaK7D_wYMv-969" style="shape=tableRow;horizontal=0;startSize=0;swimlaneHead=0;swimlaneBody=0;fillColor=none;collapsible=0;dropTarget=0;points=[[0,0.5],[1,0.5]];portConstraint=eastwest;top=0;left=0;right=0;bottom=0;swimlaneLine=1;" vertex="1" parent="6It09mlc2z2I1y0DJIgb-40">
          <mxGeometry y="229" width="283" height="30" as="geometry" />
        </mxCell>
        <mxCell id="EEHmMVJqZzsaK7D_wYMv-970" value="*" style="shape=partialRectangle;connectable=0;fillColor=none;top=0;left=0;bottom=0;right=0;editable=1;overflow=hidden;whiteSpace=wrap;html=1;swimlaneLine=1;" vertex="1" parent="EEHmMVJqZzsaK7D_wYMv-969">
          <mxGeometry width="30" height="30" as="geometry">
            <mxRectangle width="30" height="30" as="alternateBounds" />
          </mxGeometry>
        </mxCell>
        <mxCell id="EEHmMVJqZzsaK7D_wYMv-971" value="row_is_deleted: bool" style="shape=partialRectangle;connectable=0;fillColor=none;top=0;left=0;bottom=0;right=0;align=left;spacingLeft=6;overflow=hidden;whiteSpace=wrap;html=1;fontStyle=0;swimlaneLine=1;" vertex="1" parent="EEHmMVJqZzsaK7D_wYMv-969">
          <mxGeometry x="30" width="253" height="30" as="geometry">
            <mxRectangle width="253" height="30" as="alternateBounds" />
          </mxGeometry>
        </mxCell>
      </root>
    </mxGraphModel>
  </diagram>
</mxfile>
